<mxfile host="app.diagrams.net" modified="2023-03-24T18:05:20.078Z" agent="5.0 (Windows NT 10.0; Win64; x64) AppleWebKit/537.36 (KHTML, like Gecko) Chrome/111.0.0.0 Safari/537.36" etag="LV6gEsTtKF86XvCbMPgt" version="21.0.10" type="github">
  <diagram name="Pagina-1" id="jkMGYgcZss7tJJXc1dJc">
    <mxGraphModel dx="4630" dy="1807" grid="1" gridSize="10" guides="1" tooltips="1" connect="1" arrows="1" fold="1" page="1" pageScale="1" pageWidth="827" pageHeight="1169" math="0" shadow="0">
      <root>
        <mxCell id="0" />
        <mxCell id="1" parent="0" />
        <mxCell id="S80xQoVA_Cn7VEeKXndC-1" value="" style="rounded=1;whiteSpace=wrap;html=1;" parent="1" vertex="1">
          <mxGeometry x="-3194" y="30" width="1520" height="170" as="geometry" />
        </mxCell>
        <mxCell id="S80xQoVA_Cn7VEeKXndC-2" value="KAFKA" style="text;html=1;align=center;verticalAlign=middle;resizable=0;points=[];autosize=1;strokeColor=none;fillColor=none;" parent="1" vertex="1">
          <mxGeometry x="-2764" y="-10" width="60" height="30" as="geometry" />
        </mxCell>
        <mxCell id="S80xQoVA_Cn7VEeKXndC-200" style="edgeStyle=orthogonalEdgeStyle;rounded=0;orthogonalLoop=1;jettySize=auto;html=1;exitX=1;exitY=0.5;exitDx=0;exitDy=0;entryX=0;entryY=0.5;entryDx=0;entryDy=0;" parent="1" source="S80xQoVA_Cn7VEeKXndC-3" target="S80xQoVA_Cn7VEeKXndC-198" edge="1">
          <mxGeometry relative="1" as="geometry">
            <mxPoint x="-2414" y="120" as="targetPoint" />
          </mxGeometry>
        </mxCell>
        <mxCell id="S80xQoVA_Cn7VEeKXndC-3" value="SearchBot" style="rounded=0;whiteSpace=wrap;html=1;fillColor=#0050ef;fontColor=#ffffff;strokeColor=#001DBC;" parent="1" vertex="1">
          <mxGeometry x="-2834" y="110" width="140" height="30" as="geometry" />
        </mxCell>
        <mxCell id="S80xQoVA_Cn7VEeKXndC-185" style="edgeStyle=orthogonalEdgeStyle;rounded=0;orthogonalLoop=1;jettySize=auto;html=1;exitX=0.5;exitY=1;exitDx=0;exitDy=0;entryX=0;entryY=0.5;entryDx=0;entryDy=0;" parent="1" source="S80xQoVA_Cn7VEeKXndC-5" target="S80xQoVA_Cn7VEeKXndC-184" edge="1">
          <mxGeometry relative="1" as="geometry" />
        </mxCell>
        <mxCell id="S80xQoVA_Cn7VEeKXndC-5" value="KStream Consumer" style="ellipse;whiteSpace=wrap;html=1;aspect=fixed;fillColor=#FF0000;" parent="1" vertex="1">
          <mxGeometry x="-3141.5" y="430" width="80" height="80" as="geometry" />
        </mxCell>
        <mxCell id="S80xQoVA_Cn7VEeKXndC-20" style="edgeStyle=orthogonalEdgeStyle;rounded=0;orthogonalLoop=1;jettySize=auto;html=1;exitX=1;exitY=0.5;exitDx=0;exitDy=0;entryX=0;entryY=0.5;entryDx=0;entryDy=0;" parent="1" source="S80xQoVA_Cn7VEeKXndC-7" target="S80xQoVA_Cn7VEeKXndC-18" edge="1">
          <mxGeometry relative="1" as="geometry" />
        </mxCell>
        <mxCell id="S80xQoVA_Cn7VEeKXndC-21" style="edgeStyle=orthogonalEdgeStyle;rounded=0;orthogonalLoop=1;jettySize=auto;html=1;exitX=1;exitY=0.5;exitDx=0;exitDy=0;entryX=0;entryY=0.5;entryDx=0;entryDy=0;" parent="1" source="S80xQoVA_Cn7VEeKXndC-7" target="S80xQoVA_Cn7VEeKXndC-19" edge="1">
          <mxGeometry relative="1" as="geometry" />
        </mxCell>
        <mxCell id="S80xQoVA_Cn7VEeKXndC-22" style="edgeStyle=orthogonalEdgeStyle;rounded=0;orthogonalLoop=1;jettySize=auto;html=1;exitX=1;exitY=0.5;exitDx=0;exitDy=0;entryX=0;entryY=0.5;entryDx=0;entryDy=0;" parent="1" source="S80xQoVA_Cn7VEeKXndC-7" target="S80xQoVA_Cn7VEeKXndC-16" edge="1">
          <mxGeometry relative="1" as="geometry" />
        </mxCell>
        <mxCell id="S80xQoVA_Cn7VEeKXndC-7" value="Branch" style="whiteSpace=wrap;html=1;aspect=fixed;fillColor=#008a00;fontColor=#ffffff;strokeColor=#005700;" parent="1" vertex="1">
          <mxGeometry x="-3014" y="445" width="50" height="50" as="geometry" />
        </mxCell>
        <mxCell id="S80xQoVA_Cn7VEeKXndC-9" value="SearchMatch" style="rounded=0;whiteSpace=wrap;html=1;fillColor=#0050ef;fontColor=#ffffff;strokeColor=#001DBC;" parent="1" vertex="1">
          <mxGeometry x="-3134" y="140" width="140" height="30" as="geometry" />
        </mxCell>
        <mxCell id="S80xQoVA_Cn7VEeKXndC-28" style="edgeStyle=orthogonalEdgeStyle;rounded=0;orthogonalLoop=1;jettySize=auto;html=1;exitX=1;exitY=0.5;exitDx=0;exitDy=0;entryX=0.5;entryY=0;entryDx=0;entryDy=0;" parent="1" source="S80xQoVA_Cn7VEeKXndC-11" target="S80xQoVA_Cn7VEeKXndC-27" edge="1">
          <mxGeometry relative="1" as="geometry">
            <Array as="points">
              <mxPoint x="-2654" y="85" />
              <mxPoint x="-2654" y="415" />
            </Array>
          </mxGeometry>
        </mxCell>
        <mxCell id="S80xQoVA_Cn7VEeKXndC-35" style="edgeStyle=orthogonalEdgeStyle;rounded=0;orthogonalLoop=1;jettySize=auto;html=1;exitX=1;exitY=0.5;exitDx=0;exitDy=0;entryX=0;entryY=0.5;entryDx=0;entryDy=0;" parent="1" source="S80xQoVA_Cn7VEeKXndC-11" target="S80xQoVA_Cn7VEeKXndC-34" edge="1">
          <mxGeometry relative="1" as="geometry" />
        </mxCell>
        <mxCell id="S80xQoVA_Cn7VEeKXndC-11" value="SearchPrivate" style="rounded=0;whiteSpace=wrap;html=1;fillColor=#0050ef;fontColor=#ffffff;strokeColor=#001DBC;" parent="1" vertex="1">
          <mxGeometry x="-2864" y="70" width="140" height="30" as="geometry" />
        </mxCell>
        <mxCell id="S80xQoVA_Cn7VEeKXndC-13" value="" style="endArrow=classic;html=1;rounded=0;entryX=0.5;entryY=0;entryDx=0;entryDy=0;exitX=0.5;exitY=1;exitDx=0;exitDy=0;" parent="1" source="S80xQoVA_Cn7VEeKXndC-9" target="S80xQoVA_Cn7VEeKXndC-5" edge="1">
          <mxGeometry width="50" height="50" relative="1" as="geometry">
            <mxPoint x="-3184" y="320" as="sourcePoint" />
            <mxPoint x="-3134" y="270" as="targetPoint" />
          </mxGeometry>
        </mxCell>
        <mxCell id="S80xQoVA_Cn7VEeKXndC-26" style="edgeStyle=orthogonalEdgeStyle;rounded=0;orthogonalLoop=1;jettySize=auto;html=1;exitX=1;exitY=0.5;exitDx=0;exitDy=0;entryX=0.162;entryY=0.99;entryDx=0;entryDy=0;entryPerimeter=0;" parent="1" source="S80xQoVA_Cn7VEeKXndC-16" target="S80xQoVA_Cn7VEeKXndC-23" edge="1">
          <mxGeometry relative="1" as="geometry" />
        </mxCell>
        <mxCell id="S80xQoVA_Cn7VEeKXndC-16" value="to()" style="whiteSpace=wrap;html=1;fillColor=#008a00;fontColor=#ffffff;strokeColor=#005700;" parent="1" vertex="1">
          <mxGeometry x="-2914" y="492.5" width="50" height="25" as="geometry" />
        </mxCell>
        <mxCell id="S80xQoVA_Cn7VEeKXndC-25" style="edgeStyle=orthogonalEdgeStyle;rounded=0;orthogonalLoop=1;jettySize=auto;html=1;exitX=1;exitY=0.5;exitDx=0;exitDy=0;entryX=0.062;entryY=1.124;entryDx=0;entryDy=0;entryPerimeter=0;" parent="1" source="S80xQoVA_Cn7VEeKXndC-18" target="S80xQoVA_Cn7VEeKXndC-3" edge="1">
          <mxGeometry relative="1" as="geometry" />
        </mxCell>
        <mxCell id="S80xQoVA_Cn7VEeKXndC-18" value="to()" style="whiteSpace=wrap;html=1;fillColor=#008a00;fontColor=#ffffff;strokeColor=#005700;" parent="1" vertex="1">
          <mxGeometry x="-2914" y="457.5" width="50" height="25" as="geometry" />
        </mxCell>
        <mxCell id="S80xQoVA_Cn7VEeKXndC-24" style="edgeStyle=orthogonalEdgeStyle;rounded=0;orthogonalLoop=1;jettySize=auto;html=1;exitX=1;exitY=0.5;exitDx=0;exitDy=0;entryX=0.089;entryY=0.99;entryDx=0;entryDy=0;entryPerimeter=0;" parent="1" source="S80xQoVA_Cn7VEeKXndC-19" target="S80xQoVA_Cn7VEeKXndC-11" edge="1">
          <mxGeometry relative="1" as="geometry">
            <Array as="points">
              <mxPoint x="-2852" y="435" />
              <mxPoint x="-2852" y="261" />
            </Array>
          </mxGeometry>
        </mxCell>
        <mxCell id="S80xQoVA_Cn7VEeKXndC-19" value="to()" style="whiteSpace=wrap;html=1;fillColor=#008a00;fontColor=#ffffff;strokeColor=#005700;" parent="1" vertex="1">
          <mxGeometry x="-2914" y="422.5" width="50" height="25" as="geometry" />
        </mxCell>
        <mxCell id="S80xQoVA_Cn7VEeKXndC-202" style="edgeStyle=orthogonalEdgeStyle;rounded=0;orthogonalLoop=1;jettySize=auto;html=1;exitX=1;exitY=0.5;exitDx=0;exitDy=0;entryX=0;entryY=0.5;entryDx=0;entryDy=0;" parent="1" source="S80xQoVA_Cn7VEeKXndC-23" target="S80xQoVA_Cn7VEeKXndC-198" edge="1">
          <mxGeometry relative="1" as="geometry" />
        </mxCell>
        <mxCell id="S80xQoVA_Cn7VEeKXndC-23" value="SearchNormal" style="rounded=0;whiteSpace=wrap;html=1;fillColor=#0050ef;fontColor=#ffffff;strokeColor=#001DBC;" parent="1" vertex="1">
          <mxGeometry x="-2804" y="150" width="140" height="30" as="geometry" />
        </mxCell>
        <mxCell id="S80xQoVA_Cn7VEeKXndC-30" value="" style="edgeStyle=orthogonalEdgeStyle;rounded=0;orthogonalLoop=1;jettySize=auto;html=1;" parent="1" source="S80xQoVA_Cn7VEeKXndC-27" target="S80xQoVA_Cn7VEeKXndC-29" edge="1">
          <mxGeometry relative="1" as="geometry" />
        </mxCell>
        <mxCell id="S80xQoVA_Cn7VEeKXndC-27" value="KStream Consumer" style="ellipse;whiteSpace=wrap;html=1;aspect=fixed;fillColor=#FF0000;" parent="1" vertex="1">
          <mxGeometry x="-2694" y="430" width="80" height="80" as="geometry" />
        </mxCell>
        <mxCell id="S80xQoVA_Cn7VEeKXndC-32" style="edgeStyle=orthogonalEdgeStyle;rounded=0;orthogonalLoop=1;jettySize=auto;html=1;exitX=0.5;exitY=1;exitDx=0;exitDy=0;entryX=0.5;entryY=0;entryDx=0;entryDy=0;entryPerimeter=0;" parent="1" source="S80xQoVA_Cn7VEeKXndC-29" target="S80xQoVA_Cn7VEeKXndC-31" edge="1">
          <mxGeometry relative="1" as="geometry" />
        </mxCell>
        <mxCell id="S80xQoVA_Cn7VEeKXndC-38" style="edgeStyle=orthogonalEdgeStyle;rounded=0;orthogonalLoop=1;jettySize=auto;html=1;exitX=1;exitY=0.5;exitDx=0;exitDy=0;entryX=0;entryY=0.5;entryDx=0;entryDy=0;" parent="1" source="S80xQoVA_Cn7VEeKXndC-29" target="S80xQoVA_Cn7VEeKXndC-39" edge="1">
          <mxGeometry relative="1" as="geometry">
            <mxPoint x="-2414" y="470" as="targetPoint" />
          </mxGeometry>
        </mxCell>
        <mxCell id="S80xQoVA_Cn7VEeKXndC-29" value="toTable()" style="whiteSpace=wrap;html=1;fillColor=#008a00;fontColor=#ffffff;strokeColor=#005700;" parent="1" vertex="1">
          <mxGeometry x="-2564" y="450" width="100" height="40" as="geometry" />
        </mxCell>
        <mxCell id="S80xQoVA_Cn7VEeKXndC-36" style="edgeStyle=orthogonalEdgeStyle;rounded=0;orthogonalLoop=1;jettySize=auto;html=1;exitX=0.5;exitY=0;exitDx=0;exitDy=0;entryX=0;entryY=0.5;entryDx=0;entryDy=0;" parent="1" source="S80xQoVA_Cn7VEeKXndC-34" target="S80xQoVA_Cn7VEeKXndC-11" edge="1">
          <mxGeometry relative="1" as="geometry" />
        </mxCell>
        <mxCell id="S80xQoVA_Cn7VEeKXndC-199" style="edgeStyle=orthogonalEdgeStyle;rounded=0;orthogonalLoop=1;jettySize=auto;html=1;exitX=1;exitY=0.5;exitDx=0;exitDy=0;entryX=0;entryY=0.5;entryDx=0;entryDy=0;" parent="1" source="S80xQoVA_Cn7VEeKXndC-34" target="S80xQoVA_Cn7VEeKXndC-198" edge="1">
          <mxGeometry relative="1" as="geometry" />
        </mxCell>
        <mxCell id="S80xQoVA_Cn7VEeKXndC-34" value="MatcherService" style="rounded=0;whiteSpace=wrap;html=1;fillColor=#FF8000;" parent="1" vertex="1">
          <mxGeometry x="-2554" y="-70" width="100" height="80" as="geometry" />
        </mxCell>
        <mxCell id="S80xQoVA_Cn7VEeKXndC-37" value="ToombStone Message" style="text;html=1;align=center;verticalAlign=middle;resizable=0;points=[];autosize=1;strokeColor=none;fillColor=none;" parent="1" vertex="1">
          <mxGeometry x="-2884" y="-90" width="140" height="30" as="geometry" />
        </mxCell>
        <mxCell id="S80xQoVA_Cn7VEeKXndC-41" style="edgeStyle=orthogonalEdgeStyle;rounded=0;orthogonalLoop=1;jettySize=auto;html=1;exitX=1;exitY=0.5;exitDx=0;exitDy=0;entryX=0;entryY=0.5;entryDx=0;entryDy=0;" parent="1" source="S80xQoVA_Cn7VEeKXndC-39" target="S80xQoVA_Cn7VEeKXndC-40" edge="1">
          <mxGeometry relative="1" as="geometry" />
        </mxCell>
        <mxCell id="S80xQoVA_Cn7VEeKXndC-39" value="GroupBy(Type)" style="rounded=0;whiteSpace=wrap;html=1;fillColor=#008a00;fontColor=#ffffff;strokeColor=#005700;" parent="1" vertex="1">
          <mxGeometry x="-2414" y="450" width="100" height="40" as="geometry" />
        </mxCell>
        <mxCell id="S80xQoVA_Cn7VEeKXndC-42" style="edgeStyle=orthogonalEdgeStyle;rounded=0;orthogonalLoop=1;jettySize=auto;html=1;exitX=1;exitY=0.5;exitDx=0;exitDy=0;entryX=0;entryY=0.5;entryDx=0;entryDy=0;" parent="1" source="S80xQoVA_Cn7VEeKXndC-40" target="S80xQoVA_Cn7VEeKXndC-43" edge="1">
          <mxGeometry relative="1" as="geometry">
            <mxPoint x="-2154" y="470" as="targetPoint" />
          </mxGeometry>
        </mxCell>
        <mxCell id="S80xQoVA_Cn7VEeKXndC-40" value="Count()" style="rounded=0;whiteSpace=wrap;html=1;fillColor=#008a00;fontColor=#ffffff;strokeColor=#005700;" parent="1" vertex="1">
          <mxGeometry x="-2284" y="450" width="100" height="40" as="geometry" />
        </mxCell>
        <mxCell id="S80xQoVA_Cn7VEeKXndC-46" style="edgeStyle=orthogonalEdgeStyle;rounded=0;orthogonalLoop=1;jettySize=auto;html=1;exitX=0.5;exitY=0;exitDx=0;exitDy=0;entryX=0.5;entryY=1;entryDx=0;entryDy=0;" parent="1" source="S80xQoVA_Cn7VEeKXndC-43" target="S80xQoVA_Cn7VEeKXndC-44" edge="1">
          <mxGeometry relative="1" as="geometry" />
        </mxCell>
        <mxCell id="S80xQoVA_Cn7VEeKXndC-43" value="to()" style="rounded=0;whiteSpace=wrap;html=1;fillColor=#008a00;fontColor=#ffffff;strokeColor=#005700;" parent="1" vertex="1">
          <mxGeometry x="-2154" y="455" width="80" height="30" as="geometry" />
        </mxCell>
        <mxCell id="S80xQoVA_Cn7VEeKXndC-44" value="SearchingPlayers" style="rounded=0;whiteSpace=wrap;html=1;fillColor=#0050ef;fontColor=#ffffff;strokeColor=#001DBC;" parent="1" vertex="1">
          <mxGeometry x="-2184" y="150" width="140" height="30" as="geometry" />
        </mxCell>
        <mxCell id="S80xQoVA_Cn7VEeKXndC-45" value="Keys: Hardcore, Casual" style="text;html=1;align=center;verticalAlign=middle;resizable=0;points=[];autosize=1;strokeColor=none;fillColor=none;" parent="1" vertex="1">
          <mxGeometry x="-2434" y="495" width="150" height="30" as="geometry" />
        </mxCell>
        <mxCell id="S80xQoVA_Cn7VEeKXndC-47" value="" style="rounded=1;whiteSpace=wrap;html=1;" parent="1" vertex="1">
          <mxGeometry x="-1560" y="970" width="1520" height="170" as="geometry" />
        </mxCell>
        <mxCell id="S80xQoVA_Cn7VEeKXndC-48" value="KAFKA" style="text;html=1;align=center;verticalAlign=middle;resizable=0;points=[];autosize=1;strokeColor=none;fillColor=none;" parent="1" vertex="1">
          <mxGeometry x="-840" y="940" width="60" height="30" as="geometry" />
        </mxCell>
        <mxCell id="S80xQoVA_Cn7VEeKXndC-52" style="edgeStyle=orthogonalEdgeStyle;rounded=0;orthogonalLoop=1;jettySize=auto;html=1;exitX=0.5;exitY=1;exitDx=0;exitDy=0;entryX=0.5;entryY=0;entryDx=0;entryDy=0;" parent="1" source="S80xQoVA_Cn7VEeKXndC-50" target="S80xQoVA_Cn7VEeKXndC-51" edge="1">
          <mxGeometry relative="1" as="geometry" />
        </mxCell>
        <mxCell id="S80xQoVA_Cn7VEeKXndC-50" value="UserUpdate" style="rounded=0;whiteSpace=wrap;html=1;fillColor=#0050ef;fontColor=#ffffff;strokeColor=#001DBC;" parent="1" vertex="1">
          <mxGeometry x="-1300" y="1080" width="140" height="30" as="geometry" />
        </mxCell>
        <mxCell id="S80xQoVA_Cn7VEeKXndC-54" style="edgeStyle=orthogonalEdgeStyle;rounded=0;orthogonalLoop=1;jettySize=auto;html=1;exitX=1;exitY=0.5;exitDx=0;exitDy=0;" parent="1" source="S80xQoVA_Cn7VEeKXndC-51" target="S80xQoVA_Cn7VEeKXndC-53" edge="1">
          <mxGeometry relative="1" as="geometry" />
        </mxCell>
        <mxCell id="S80xQoVA_Cn7VEeKXndC-51" value="KStream Consumer" style="ellipse;whiteSpace=wrap;html=1;aspect=fixed;fillColor=#a20025;fontColor=#ffffff;strokeColor=#6F0000;" parent="1" vertex="1">
          <mxGeometry x="-1270" y="1230" width="80" height="80" as="geometry" />
        </mxCell>
        <mxCell id="S80xQoVA_Cn7VEeKXndC-79" style="edgeStyle=orthogonalEdgeStyle;rounded=0;orthogonalLoop=1;jettySize=auto;html=1;exitX=1;exitY=0.5;exitDx=0;exitDy=0;entryX=0;entryY=0.5;entryDx=0;entryDy=0;" parent="1" source="S80xQoVA_Cn7VEeKXndC-53" target="S80xQoVA_Cn7VEeKXndC-78" edge="1">
          <mxGeometry relative="1" as="geometry" />
        </mxCell>
        <mxCell id="S80xQoVA_Cn7VEeKXndC-53" value="filter" style="whiteSpace=wrap;html=1;aspect=fixed;fillColor=#008a00;fontColor=#ffffff;strokeColor=#005700;" parent="1" vertex="1">
          <mxGeometry x="-1130" y="1245" width="50" height="50" as="geometry" />
        </mxCell>
        <mxCell id="S80xQoVA_Cn7VEeKXndC-82" style="edgeStyle=orthogonalEdgeStyle;rounded=0;orthogonalLoop=1;jettySize=auto;html=1;exitX=0.5;exitY=1;exitDx=0;exitDy=0;entryX=0.5;entryY=0;entryDx=0;entryDy=0;entryPerimeter=0;" parent="1" source="S80xQoVA_Cn7VEeKXndC-76" target="S80xQoVA_Cn7VEeKXndC-81" edge="1">
          <mxGeometry relative="1" as="geometry" />
        </mxCell>
        <mxCell id="S80xQoVA_Cn7VEeKXndC-86" value="" style="edgeStyle=orthogonalEdgeStyle;rounded=0;orthogonalLoop=1;jettySize=auto;html=1;" parent="1" source="S80xQoVA_Cn7VEeKXndC-76" target="S80xQoVA_Cn7VEeKXndC-85" edge="1">
          <mxGeometry relative="1" as="geometry" />
        </mxCell>
        <mxCell id="S80xQoVA_Cn7VEeKXndC-76" value="KTable" style="whiteSpace=wrap;html=1;aspect=fixed;fillColor=#008a00;fontColor=#ffffff;strokeColor=#005700;" parent="1" vertex="1">
          <mxGeometry x="-850" y="1230" width="80" height="80" as="geometry" />
        </mxCell>
        <mxCell id="S80xQoVA_Cn7VEeKXndC-77" value="User Table" style="text;html=1;align=center;verticalAlign=middle;resizable=0;points=[];autosize=1;strokeColor=none;fillColor=none;" parent="1" vertex="1">
          <mxGeometry x="-850" y="1200" width="80" height="30" as="geometry" />
        </mxCell>
        <mxCell id="S80xQoVA_Cn7VEeKXndC-80" style="edgeStyle=orthogonalEdgeStyle;rounded=0;orthogonalLoop=1;jettySize=auto;html=1;exitX=1;exitY=0.5;exitDx=0;exitDy=0;entryX=0;entryY=0.5;entryDx=0;entryDy=0;" parent="1" source="S80xQoVA_Cn7VEeKXndC-78" target="S80xQoVA_Cn7VEeKXndC-76" edge="1">
          <mxGeometry relative="1" as="geometry" />
        </mxCell>
        <mxCell id="S80xQoVA_Cn7VEeKXndC-78" value="GroupByKey" style="whiteSpace=wrap;html=1;aspect=fixed;fillColor=#008a00;fontColor=#ffffff;strokeColor=#005700;" parent="1" vertex="1">
          <mxGeometry x="-1010" y="1230" width="80" height="80" as="geometry" />
        </mxCell>
        <mxCell id="S80xQoVA_Cn7VEeKXndC-81" value="" style="strokeWidth=2;html=1;shape=mxgraph.flowchart.database;whiteSpace=wrap;" parent="1" vertex="1">
          <mxGeometry x="-840" y="1360" width="60" height="60" as="geometry" />
        </mxCell>
        <mxCell id="S80xQoVA_Cn7VEeKXndC-89" value="" style="edgeStyle=orthogonalEdgeStyle;rounded=0;orthogonalLoop=1;jettySize=auto;html=1;" parent="1" source="S80xQoVA_Cn7VEeKXndC-85" target="S80xQoVA_Cn7VEeKXndC-88" edge="1">
          <mxGeometry relative="1" as="geometry" />
        </mxCell>
        <mxCell id="S80xQoVA_Cn7VEeKXndC-85" value="to()" style="whiteSpace=wrap;html=1;aspect=fixed;fillColor=#008a00;fontColor=#ffffff;strokeColor=#005700;" parent="1" vertex="1">
          <mxGeometry x="-690" y="1240" width="60" height="60" as="geometry" />
        </mxCell>
        <mxCell id="S80xQoVA_Cn7VEeKXndC-88" value="UserUpdates" style="whiteSpace=wrap;html=1;fillColor=#0050ef;fontColor=#ffffff;strokeColor=#001DBC;" parent="1" vertex="1">
          <mxGeometry x="-590" y="1090" width="130" height="32.5" as="geometry" />
        </mxCell>
        <mxCell id="S80xQoVA_Cn7VEeKXndC-90" value="" style="rounded=1;whiteSpace=wrap;html=1;" parent="1" vertex="1">
          <mxGeometry x="10" y="130" width="1720" height="170" as="geometry" />
        </mxCell>
        <mxCell id="S80xQoVA_Cn7VEeKXndC-136" style="edgeStyle=orthogonalEdgeStyle;rounded=0;orthogonalLoop=1;jettySize=auto;html=1;exitX=0.5;exitY=1;exitDx=0;exitDy=0;entryX=0.5;entryY=0;entryDx=0;entryDy=0;" parent="1" source="S80xQoVA_Cn7VEeKXndC-130" target="S80xQoVA_Cn7VEeKXndC-135" edge="1">
          <mxGeometry relative="1" as="geometry" />
        </mxCell>
        <mxCell id="S80xQoVA_Cn7VEeKXndC-130" value="CardUpdate" style="rounded=0;whiteSpace=wrap;html=1;fillColor=#0050ef;fontColor=#ffffff;strokeColor=#001DBC;" parent="1" vertex="1">
          <mxGeometry x="260" y="200" width="140" height="30" as="geometry" />
        </mxCell>
        <mxCell id="S80xQoVA_Cn7VEeKXndC-133" style="edgeStyle=orthogonalEdgeStyle;rounded=0;orthogonalLoop=1;jettySize=auto;html=1;exitX=0.5;exitY=1;exitDx=0;exitDy=0;" parent="1" source="S80xQoVA_Cn7VEeKXndC-131" target="S80xQoVA_Cn7VEeKXndC-130" edge="1">
          <mxGeometry relative="1" as="geometry" />
        </mxCell>
        <mxCell id="S80xQoVA_Cn7VEeKXndC-131" value="Sync" style="whiteSpace=wrap;html=1;aspect=fixed;fillColor=#FF8000;" parent="1" vertex="1">
          <mxGeometry x="210" y="40" width="80" height="80" as="geometry" />
        </mxCell>
        <mxCell id="S80xQoVA_Cn7VEeKXndC-134" style="edgeStyle=orthogonalEdgeStyle;rounded=0;orthogonalLoop=1;jettySize=auto;html=1;exitX=0.5;exitY=1;exitDx=0;exitDy=0;" parent="1" source="S80xQoVA_Cn7VEeKXndC-132" edge="1">
          <mxGeometry relative="1" as="geometry">
            <mxPoint x="330" y="200" as="targetPoint" />
          </mxGeometry>
        </mxCell>
        <mxCell id="S80xQoVA_Cn7VEeKXndC-132" value="Server" style="whiteSpace=wrap;html=1;aspect=fixed;fillColor=#FF8000;" parent="1" vertex="1">
          <mxGeometry x="350" y="40" width="80" height="80" as="geometry" />
        </mxCell>
        <mxCell id="Q8wgH2nms2r7PHddlLwt-28" style="edgeStyle=orthogonalEdgeStyle;rounded=0;orthogonalLoop=1;jettySize=auto;html=1;exitX=1;exitY=0.5;exitDx=0;exitDy=0;" parent="1" source="S80xQoVA_Cn7VEeKXndC-135" target="S80xQoVA_Cn7VEeKXndC-137" edge="1">
          <mxGeometry relative="1" as="geometry" />
        </mxCell>
        <mxCell id="S80xQoVA_Cn7VEeKXndC-135" value="KStream Consumer" style="ellipse;whiteSpace=wrap;html=1;aspect=fixed;fillColor=#FF0000;" parent="1" vertex="1">
          <mxGeometry x="290" y="350" width="80" height="80" as="geometry" />
        </mxCell>
        <mxCell id="S80xQoVA_Cn7VEeKXndC-224" style="edgeStyle=orthogonalEdgeStyle;rounded=0;orthogonalLoop=1;jettySize=auto;html=1;exitX=1;exitY=0.5;exitDx=0;exitDy=0;" parent="1" source="S80xQoVA_Cn7VEeKXndC-142" target="S80xQoVA_Cn7VEeKXndC-177" edge="1">
          <mxGeometry relative="1" as="geometry">
            <Array as="points">
              <mxPoint x="680" y="370" />
              <mxPoint x="850" y="370" />
              <mxPoint x="850" y="205" />
            </Array>
          </mxGeometry>
        </mxCell>
        <mxCell id="S80xQoVA_Cn7VEeKXndC-309" style="edgeStyle=orthogonalEdgeStyle;rounded=0;orthogonalLoop=1;jettySize=auto;html=1;exitX=0.5;exitY=1;exitDx=0;exitDy=0;entryX=0.5;entryY=0;entryDx=0;entryDy=0;" parent="1" source="S80xQoVA_Cn7VEeKXndC-151" target="S80xQoVA_Cn7VEeKXndC-308" edge="1">
          <mxGeometry relative="1" as="geometry" />
        </mxCell>
        <mxCell id="Q8wgH2nms2r7PHddlLwt-30" style="edgeStyle=orthogonalEdgeStyle;rounded=0;orthogonalLoop=1;jettySize=auto;html=1;exitX=0.5;exitY=1;exitDx=0;exitDy=0;" parent="1" source="S80xQoVA_Cn7VEeKXndC-151" target="Q8wgH2nms2r7PHddlLwt-29" edge="1">
          <mxGeometry relative="1" as="geometry" />
        </mxCell>
        <mxCell id="S80xQoVA_Cn7VEeKXndC-151" value="User" style="whiteSpace=wrap;html=1;aspect=fixed;fillColor=#FF8000;" parent="1" vertex="1">
          <mxGeometry x="60" y="40" width="80" height="80" as="geometry" />
        </mxCell>
        <mxCell id="S80xQoVA_Cn7VEeKXndC-153" value="Key: CardID&lt;br&gt;Value: PlayerID, etc" style="text;html=1;align=center;verticalAlign=middle;resizable=0;points=[];autosize=1;strokeColor=none;fillColor=none;" parent="1" vertex="1">
          <mxGeometry x="265" y="425" width="130" height="40" as="geometry" />
        </mxCell>
        <mxCell id="S80xQoVA_Cn7VEeKXndC-177" value="KCardUpdates" style="rounded=0;whiteSpace=wrap;html=1;fillColor=#0050ef;fontColor=#ffffff;strokeColor=#001DBC;" parent="1" vertex="1">
          <mxGeometry x="890" y="190" width="140" height="30" as="geometry" />
        </mxCell>
        <mxCell id="S80xQoVA_Cn7VEeKXndC-179" value="KDeckUpdate" style="rounded=0;whiteSpace=wrap;html=1;fillColor=#0050ef;fontColor=#ffffff;strokeColor=#001DBC;" parent="1" vertex="1">
          <mxGeometry x="1420" y="200" width="140" height="30" as="geometry" />
        </mxCell>
        <mxCell id="S80xQoVA_Cn7VEeKXndC-181" value="" style="swimlane;startSize=0;strokeWidth=3;" parent="1" vertex="1">
          <mxGeometry x="230" y="311" width="1300" height="547.5" as="geometry" />
        </mxCell>
        <mxCell id="S80xQoVA_Cn7VEeKXndC-222" style="edgeStyle=orthogonalEdgeStyle;rounded=0;orthogonalLoop=1;jettySize=auto;html=1;exitX=1;exitY=0.5;exitDx=0;exitDy=0;entryX=0;entryY=0.5;entryDx=0;entryDy=0;" parent="S80xQoVA_Cn7VEeKXndC-181" source="S80xQoVA_Cn7VEeKXndC-219" target="S80xQoVA_Cn7VEeKXndC-221" edge="1">
          <mxGeometry relative="1" as="geometry" />
        </mxCell>
        <mxCell id="S80xQoVA_Cn7VEeKXndC-219" value="GroupBy()" style="whiteSpace=wrap;html=1;aspect=fixed;fillColor=#008a00;fontColor=#ffffff;strokeColor=#005700;" parent="S80xQoVA_Cn7VEeKXndC-181" vertex="1">
          <mxGeometry x="740" y="37.5" width="80" height="80" as="geometry" />
        </mxCell>
        <mxCell id="S80xQoVA_Cn7VEeKXndC-227" style="edgeStyle=orthogonalEdgeStyle;rounded=0;orthogonalLoop=1;jettySize=auto;html=1;exitX=0.5;exitY=1;exitDx=0;exitDy=0;entryX=0;entryY=0.5;entryDx=0;entryDy=0;entryPerimeter=0;" parent="S80xQoVA_Cn7VEeKXndC-181" source="S80xQoVA_Cn7VEeKXndC-221" target="S80xQoVA_Cn7VEeKXndC-226" edge="1">
          <mxGeometry relative="1" as="geometry" />
        </mxCell>
        <mxCell id="S80xQoVA_Cn7VEeKXndC-221" value="KTable" style="whiteSpace=wrap;html=1;aspect=fixed;fillColor=#008a00;fontColor=#ffffff;strokeColor=#005700;" parent="S80xQoVA_Cn7VEeKXndC-181" vertex="1">
          <mxGeometry x="1005" y="37.5" width="80" height="80" as="geometry" />
        </mxCell>
        <mxCell id="S80xQoVA_Cn7VEeKXndC-223" value="DeckID-&amp;gt; {Cards}" style="text;html=1;align=center;verticalAlign=middle;resizable=0;points=[];autosize=1;strokeColor=none;fillColor=none;" parent="S80xQoVA_Cn7VEeKXndC-181" vertex="1">
          <mxGeometry x="980" y="7.5" width="120" height="30" as="geometry" />
        </mxCell>
        <mxCell id="S80xQoVA_Cn7VEeKXndC-144" value="CardID -&amp;gt; {PlayerID, URI}" style="text;html=1;align=center;verticalAlign=middle;resizable=0;points=[];autosize=1;strokeColor=none;fillColor=none;" parent="S80xQoVA_Cn7VEeKXndC-181" vertex="1">
          <mxGeometry x="330" y="7.5" width="160" height="30" as="geometry" />
        </mxCell>
        <mxCell id="S80xQoVA_Cn7VEeKXndC-226" value="DECK TABLE" style="strokeWidth=2;html=1;shape=mxgraph.flowchart.database;whiteSpace=wrap;fillColor=#FF66B3;" parent="S80xQoVA_Cn7VEeKXndC-181" vertex="1">
          <mxGeometry x="1180" y="157.5" width="60" height="60" as="geometry" />
        </mxCell>
        <mxCell id="Q8wgH2nms2r7PHddlLwt-37" style="edgeStyle=orthogonalEdgeStyle;rounded=0;orthogonalLoop=1;jettySize=auto;html=1;exitX=0;exitY=0.5;exitDx=0;exitDy=0;exitPerimeter=0;entryX=0.5;entryY=0;entryDx=0;entryDy=0;" parent="S80xQoVA_Cn7VEeKXndC-181" source="S80xQoVA_Cn7VEeKXndC-149" target="S80xQoVA_Cn7VEeKXndC-317" edge="1">
          <mxGeometry relative="1" as="geometry" />
        </mxCell>
        <mxCell id="S80xQoVA_Cn7VEeKXndC-149" value="CARD TABLE" style="strokeWidth=2;html=1;shape=mxgraph.flowchart.database;whiteSpace=wrap;fillColor=#99004D;" parent="S80xQoVA_Cn7VEeKXndC-181" vertex="1">
          <mxGeometry x="510" y="146.25" width="70" height="82.5" as="geometry" />
        </mxCell>
        <mxCell id="S80xQoVA_Cn7VEeKXndC-315" style="edgeStyle=orthogonalEdgeStyle;rounded=0;orthogonalLoop=1;jettySize=auto;html=1;exitX=1;exitY=0.5;exitDx=0;exitDy=0;entryX=0;entryY=0.5;entryDx=0;entryDy=0;" parent="S80xQoVA_Cn7VEeKXndC-181" source="S80xQoVA_Cn7VEeKXndC-310" target="S80xQoVA_Cn7VEeKXndC-314" edge="1">
          <mxGeometry relative="1" as="geometry" />
        </mxCell>
        <mxCell id="S80xQoVA_Cn7VEeKXndC-310" value="KStream Consumer" style="ellipse;whiteSpace=wrap;html=1;aspect=fixed;fillColor=#FF0000;" parent="S80xQoVA_Cn7VEeKXndC-181" vertex="1">
          <mxGeometry x="50" y="232.5" width="80" height="80" as="geometry" />
        </mxCell>
        <mxCell id="S80xQoVA_Cn7VEeKXndC-318" value="" style="edgeStyle=orthogonalEdgeStyle;rounded=0;orthogonalLoop=1;jettySize=auto;html=1;" parent="S80xQoVA_Cn7VEeKXndC-181" source="S80xQoVA_Cn7VEeKXndC-314" target="S80xQoVA_Cn7VEeKXndC-317" edge="1">
          <mxGeometry relative="1" as="geometry" />
        </mxCell>
        <mxCell id="S80xQoVA_Cn7VEeKXndC-314" value="Join()" style="whiteSpace=wrap;html=1;aspect=fixed;fillColor=#008a00;fontColor=#ffffff;strokeColor=#005700;" parent="S80xQoVA_Cn7VEeKXndC-181" vertex="1">
          <mxGeometry x="210" y="232.5" width="80" height="80" as="geometry" />
        </mxCell>
        <mxCell id="Q8wgH2nms2r7PHddlLwt-39" value="" style="edgeStyle=orthogonalEdgeStyle;rounded=0;orthogonalLoop=1;jettySize=auto;html=1;" parent="S80xQoVA_Cn7VEeKXndC-181" source="S80xQoVA_Cn7VEeKXndC-317" target="Q8wgH2nms2r7PHddlLwt-38" edge="1">
          <mxGeometry relative="1" as="geometry" />
        </mxCell>
        <mxCell id="S80xQoVA_Cn7VEeKXndC-317" value="Join()" style="whiteSpace=wrap;html=1;aspect=fixed;fillColor=#008a00;fontColor=#ffffff;strokeColor=#005700;" parent="S80xQoVA_Cn7VEeKXndC-181" vertex="1">
          <mxGeometry x="370" y="232.5" width="80" height="80" as="geometry" />
        </mxCell>
        <mxCell id="S80xQoVA_Cn7VEeKXndC-137" value="GroupByKey()" style="whiteSpace=wrap;html=1;aspect=fixed;fillColor=#008a00;fontColor=#ffffff;strokeColor=#005700;" parent="S80xQoVA_Cn7VEeKXndC-181" vertex="1">
          <mxGeometry x="210" y="37.5" width="80" height="80" as="geometry" />
        </mxCell>
        <mxCell id="Q8wgH2nms2r7PHddlLwt-40" style="edgeStyle=orthogonalEdgeStyle;rounded=0;orthogonalLoop=1;jettySize=auto;html=1;exitX=1;exitY=0.5;exitDx=0;exitDy=0;entryX=0;entryY=0.5;entryDx=0;entryDy=0;" parent="S80xQoVA_Cn7VEeKXndC-181" source="S80xQoVA_Cn7VEeKXndC-142" target="S80xQoVA_Cn7VEeKXndC-219" edge="1">
          <mxGeometry relative="1" as="geometry" />
        </mxCell>
        <mxCell id="S80xQoVA_Cn7VEeKXndC-142" value="KTable" style="whiteSpace=wrap;html=1;aspect=fixed;fillColor=#008a00;fontColor=#ffffff;strokeColor=#005700;" parent="S80xQoVA_Cn7VEeKXndC-181" vertex="1">
          <mxGeometry x="370" y="37.5" width="80" height="80" as="geometry" />
        </mxCell>
        <mxCell id="S80xQoVA_Cn7VEeKXndC-157" style="edgeStyle=orthogonalEdgeStyle;rounded=0;orthogonalLoop=1;jettySize=auto;html=1;exitX=1;exitY=0.5;exitDx=0;exitDy=0;entryX=0;entryY=0.5;entryDx=0;entryDy=0;" parent="S80xQoVA_Cn7VEeKXndC-181" source="S80xQoVA_Cn7VEeKXndC-137" target="S80xQoVA_Cn7VEeKXndC-142" edge="1">
          <mxGeometry relative="1" as="geometry" />
        </mxCell>
        <mxCell id="S80xQoVA_Cn7VEeKXndC-150" style="edgeStyle=orthogonalEdgeStyle;rounded=0;orthogonalLoop=1;jettySize=auto;html=1;exitX=0.5;exitY=1;exitDx=0;exitDy=0;entryX=0.5;entryY=0;entryDx=0;entryDy=0;entryPerimeter=0;" parent="S80xQoVA_Cn7VEeKXndC-181" source="S80xQoVA_Cn7VEeKXndC-142" target="S80xQoVA_Cn7VEeKXndC-149" edge="1">
          <mxGeometry relative="1" as="geometry" />
        </mxCell>
        <mxCell id="Q8wgH2nms2r7PHddlLwt-35" style="edgeStyle=orthogonalEdgeStyle;rounded=0;orthogonalLoop=1;jettySize=auto;html=1;exitX=1;exitY=0.5;exitDx=0;exitDy=0;entryX=0;entryY=0.5;entryDx=0;entryDy=0;" parent="S80xQoVA_Cn7VEeKXndC-181" source="Q8wgH2nms2r7PHddlLwt-32" target="Q8wgH2nms2r7PHddlLwt-34" edge="1">
          <mxGeometry relative="1" as="geometry" />
        </mxCell>
        <mxCell id="Q8wgH2nms2r7PHddlLwt-32" value="KStream Consumer" style="ellipse;whiteSpace=wrap;html=1;aspect=fixed;fillColor=#FF0000;" parent="S80xQoVA_Cn7VEeKXndC-181" vertex="1">
          <mxGeometry x="50" y="377.5" width="80" height="80" as="geometry" />
        </mxCell>
        <mxCell id="Q8wgH2nms2r7PHddlLwt-36" style="edgeStyle=orthogonalEdgeStyle;rounded=0;orthogonalLoop=1;jettySize=auto;html=1;exitX=0.5;exitY=0;exitDx=0;exitDy=0;entryX=0.5;entryY=1;entryDx=0;entryDy=0;" parent="S80xQoVA_Cn7VEeKXndC-181" source="Q8wgH2nms2r7PHddlLwt-34" target="S80xQoVA_Cn7VEeKXndC-314" edge="1">
          <mxGeometry relative="1" as="geometry" />
        </mxCell>
        <mxCell id="Q8wgH2nms2r7PHddlLwt-34" value="KTable" style="whiteSpace=wrap;html=1;aspect=fixed;fillColor=#008a00;fontColor=#ffffff;strokeColor=#005700;" parent="S80xQoVA_Cn7VEeKXndC-181" vertex="1">
          <mxGeometry x="210" y="377.5" width="80" height="80" as="geometry" />
        </mxCell>
        <mxCell id="Q8wgH2nms2r7PHddlLwt-10" value="Key: DeckID" style="text;html=1;align=center;verticalAlign=middle;resizable=0;points=[];autosize=1;strokeColor=none;fillColor=none;" parent="S80xQoVA_Cn7VEeKXndC-181" vertex="1">
          <mxGeometry x="214" y="452.5" width="90" height="30" as="geometry" />
        </mxCell>
        <mxCell id="Q8wgH2nms2r7PHddlLwt-11" value="Value:" style="text;html=1;align=center;verticalAlign=middle;resizable=0;points=[];autosize=1;strokeColor=none;fillColor=none;" parent="S80xQoVA_Cn7VEeKXndC-181" vertex="1">
          <mxGeometry x="229" y="472.5" width="60" height="30" as="geometry" />
        </mxCell>
        <mxCell id="Q8wgH2nms2r7PHddlLwt-12" value="DeckName, DeckOwner" style="text;html=1;align=center;verticalAlign=middle;resizable=0;points=[];autosize=1;strokeColor=none;fillColor=none;" parent="S80xQoVA_Cn7VEeKXndC-181" vertex="1">
          <mxGeometry x="184" y="487.5" width="150" height="30" as="geometry" />
        </mxCell>
        <mxCell id="Q8wgH2nms2r7PHddlLwt-38" value="Agg()" style="whiteSpace=wrap;html=1;aspect=fixed;fillColor=#008a00;fontColor=#ffffff;strokeColor=#005700;" parent="S80xQoVA_Cn7VEeKXndC-181" vertex="1">
          <mxGeometry x="550" y="249" width="80" height="80" as="geometry" />
        </mxCell>
        <mxCell id="S80xQoVA_Cn7VEeKXndC-182" value="Card Service" style="text;html=1;align=center;verticalAlign=middle;resizable=0;points=[];autosize=1;strokeColor=none;fillColor=none;strokeWidth=3;fontSize=22;" parent="1" vertex="1">
          <mxGeometry x="795" y="850" width="150" height="40" as="geometry" />
        </mxCell>
        <mxCell id="S80xQoVA_Cn7VEeKXndC-186" style="edgeStyle=orthogonalEdgeStyle;rounded=0;orthogonalLoop=1;jettySize=auto;html=1;exitX=0.5;exitY=0;exitDx=0;exitDy=0;exitPerimeter=0;entryX=0.5;entryY=1;entryDx=0;entryDy=0;" parent="1" source="S80xQoVA_Cn7VEeKXndC-183" target="S80xQoVA_Cn7VEeKXndC-184" edge="1">
          <mxGeometry relative="1" as="geometry" />
        </mxCell>
        <mxCell id="S80xQoVA_Cn7VEeKXndC-183" value="DECK KTABLE" style="strokeWidth=2;html=1;shape=mxgraph.flowchart.database;whiteSpace=wrap;fillColor=#FF66B3;" parent="1" vertex="1">
          <mxGeometry x="-3084" y="700" width="87.5" height="80" as="geometry" />
        </mxCell>
        <mxCell id="S80xQoVA_Cn7VEeKXndC-229" style="edgeStyle=orthogonalEdgeStyle;rounded=0;orthogonalLoop=1;jettySize=auto;html=1;exitX=1;exitY=0.5;exitDx=0;exitDy=0;entryX=0.5;entryY=1;entryDx=0;entryDy=0;" parent="1" source="S80xQoVA_Cn7VEeKXndC-184" target="S80xQoVA_Cn7VEeKXndC-7" edge="1">
          <mxGeometry relative="1" as="geometry" />
        </mxCell>
        <mxCell id="S80xQoVA_Cn7VEeKXndC-184" value="Join()" style="whiteSpace=wrap;html=1;aspect=fixed;fillColor=#008a00;fontColor=#ffffff;strokeColor=#005700;" parent="1" vertex="1">
          <mxGeometry x="-3065.25" y="580" width="50" height="50" as="geometry" />
        </mxCell>
        <mxCell id="S80xQoVA_Cn7VEeKXndC-191" value="" style="swimlane;startSize=0;fontSize=12;strokeWidth=3;" parent="1" vertex="1">
          <mxGeometry x="-3194" y="340" width="1540" height="480" as="geometry">
            <mxRectangle x="220" y="440" width="50" height="40" as="alternateBounds" />
          </mxGeometry>
        </mxCell>
        <mxCell id="S80xQoVA_Cn7VEeKXndC-31" value="" style="strokeWidth=2;html=1;shape=mxgraph.flowchart.database;whiteSpace=wrap;" parent="S80xQoVA_Cn7VEeKXndC-191" vertex="1">
          <mxGeometry x="580" y="185" width="60" height="60" as="geometry" />
        </mxCell>
        <mxCell id="S80xQoVA_Cn7VEeKXndC-192" value="MatchService" style="text;html=1;align=center;verticalAlign=middle;resizable=0;points=[];autosize=1;strokeColor=none;fillColor=none;strokeWidth=3;fontSize=22;" parent="1" vertex="1">
          <mxGeometry x="-2634" y="830" width="160" height="40" as="geometry" />
        </mxCell>
        <mxCell id="S80xQoVA_Cn7VEeKXndC-193" value="" style="swimlane;startSize=0;fontSize=12;strokeWidth=3;" parent="1" vertex="1">
          <mxGeometry x="-3150" y="-670" width="1500" height="480" as="geometry">
            <mxRectangle x="372.5" y="-570" width="50" height="40" as="alternateBounds" />
          </mxGeometry>
        </mxCell>
        <mxCell id="S80xQoVA_Cn7VEeKXndC-206" style="edgeStyle=orthogonalEdgeStyle;rounded=0;orthogonalLoop=1;jettySize=auto;html=1;exitX=0.5;exitY=0;exitDx=0;exitDy=0;entryX=0;entryY=0.5;entryDx=0;entryDy=0;" parent="S80xQoVA_Cn7VEeKXndC-193" source="S80xQoVA_Cn7VEeKXndC-197" target="S80xQoVA_Cn7VEeKXndC-205" edge="1">
          <mxGeometry relative="1" as="geometry" />
        </mxCell>
        <mxCell id="S80xQoVA_Cn7VEeKXndC-197" value="KStream Consumer" style="ellipse;whiteSpace=wrap;html=1;aspect=fixed;fillColor=#FF0000;" parent="S80xQoVA_Cn7VEeKXndC-193" vertex="1">
          <mxGeometry x="465.63" y="330" width="80" height="80" as="geometry" />
        </mxCell>
        <mxCell id="S80xQoVA_Cn7VEeKXndC-207" style="edgeStyle=orthogonalEdgeStyle;rounded=0;orthogonalLoop=1;jettySize=auto;html=1;exitX=0.5;exitY=1;exitDx=0;exitDy=0;exitPerimeter=0;entryX=0.5;entryY=0;entryDx=0;entryDy=0;" parent="S80xQoVA_Cn7VEeKXndC-193" source="S80xQoVA_Cn7VEeKXndC-204" target="S80xQoVA_Cn7VEeKXndC-205" edge="1">
          <mxGeometry relative="1" as="geometry" />
        </mxCell>
        <mxCell id="S80xQoVA_Cn7VEeKXndC-204" value="CARD KTABLE" style="strokeWidth=2;html=1;shape=mxgraph.flowchart.database;whiteSpace=wrap;fillColor=#99004D;" parent="S80xQoVA_Cn7VEeKXndC-193" vertex="1">
          <mxGeometry x="553.13" y="30" width="87.5" height="80" as="geometry" />
        </mxCell>
        <mxCell id="S80xQoVA_Cn7VEeKXndC-209" value="" style="edgeStyle=orthogonalEdgeStyle;rounded=0;orthogonalLoop=1;jettySize=auto;html=1;" parent="S80xQoVA_Cn7VEeKXndC-193" source="S80xQoVA_Cn7VEeKXndC-205" target="S80xQoVA_Cn7VEeKXndC-208" edge="1">
          <mxGeometry relative="1" as="geometry" />
        </mxCell>
        <mxCell id="S80xQoVA_Cn7VEeKXndC-205" value="Join()" style="whiteSpace=wrap;html=1;aspect=fixed;fillColor=#008a00;fontColor=#ffffff;strokeColor=#005700;" parent="S80xQoVA_Cn7VEeKXndC-193" vertex="1">
          <mxGeometry x="571.88" y="190" width="50" height="50" as="geometry" />
        </mxCell>
        <mxCell id="S80xQoVA_Cn7VEeKXndC-211" value="" style="edgeStyle=orthogonalEdgeStyle;rounded=0;orthogonalLoop=1;jettySize=auto;html=1;" parent="S80xQoVA_Cn7VEeKXndC-193" source="S80xQoVA_Cn7VEeKXndC-208" target="S80xQoVA_Cn7VEeKXndC-210" edge="1">
          <mxGeometry relative="1" as="geometry" />
        </mxCell>
        <mxCell id="S80xQoVA_Cn7VEeKXndC-208" value="toStream" style="whiteSpace=wrap;html=1;aspect=fixed;fillColor=#008a00;fontColor=#ffffff;strokeColor=#005700;" parent="S80xQoVA_Cn7VEeKXndC-193" vertex="1">
          <mxGeometry x="701.88" y="185" width="60" height="60" as="geometry" />
        </mxCell>
        <mxCell id="S80xQoVA_Cn7VEeKXndC-210" value="to()" style="whiteSpace=wrap;html=1;aspect=fixed;fillColor=#008a00;fontColor=#ffffff;strokeColor=#005700;" parent="S80xQoVA_Cn7VEeKXndC-193" vertex="1">
          <mxGeometry x="841.88" y="185" width="60" height="60" as="geometry" />
        </mxCell>
        <mxCell id="S80xQoVA_Cn7VEeKXndC-194" value="MatchService" style="text;html=1;align=center;verticalAlign=middle;resizable=0;points=[];autosize=1;strokeColor=none;fillColor=none;strokeWidth=3;fontSize=22;" parent="1" vertex="1">
          <mxGeometry x="-2474" y="-720" width="160" height="40" as="geometry" />
        </mxCell>
        <mxCell id="S80xQoVA_Cn7VEeKXndC-195" value="" style="endArrow=none;dashed=1;html=1;dashPattern=1 3;strokeWidth=2;rounded=0;entryX=0;entryY=1;entryDx=0;entryDy=0;" parent="1" target="S80xQoVA_Cn7VEeKXndC-193" edge="1">
          <mxGeometry width="50" height="50" relative="1" as="geometry">
            <mxPoint x="-3194" y="340" as="sourcePoint" />
            <mxPoint x="-3144" y="290" as="targetPoint" />
          </mxGeometry>
        </mxCell>
        <mxCell id="S80xQoVA_Cn7VEeKXndC-196" value="" style="endArrow=none;dashed=1;html=1;dashPattern=1 3;strokeWidth=2;rounded=0;entryX=1;entryY=1;entryDx=0;entryDy=0;exitX=1;exitY=0;exitDx=0;exitDy=0;" parent="1" source="S80xQoVA_Cn7VEeKXndC-191" target="S80xQoVA_Cn7VEeKXndC-193" edge="1">
          <mxGeometry width="50" height="50" relative="1" as="geometry">
            <mxPoint x="-1824" y="340" as="sourcePoint" />
            <mxPoint x="-1774" y="290" as="targetPoint" />
          </mxGeometry>
        </mxCell>
        <mxCell id="S80xQoVA_Cn7VEeKXndC-230" style="edgeStyle=orthogonalEdgeStyle;rounded=0;orthogonalLoop=1;jettySize=auto;html=1;exitX=0.5;exitY=0;exitDx=0;exitDy=0;entryX=0.5;entryY=1;entryDx=0;entryDy=0;" parent="1" source="S80xQoVA_Cn7VEeKXndC-198" target="S80xQoVA_Cn7VEeKXndC-197" edge="1">
          <mxGeometry relative="1" as="geometry">
            <Array as="points">
              <mxPoint x="-2284" y="90" />
              <mxPoint x="-2334" y="90" />
              <mxPoint x="-2334" y="-120" />
              <mxPoint x="-2538" y="-120" />
            </Array>
          </mxGeometry>
        </mxCell>
        <mxCell id="S80xQoVA_Cn7VEeKXndC-198" value="NewMatch" style="rounded=0;whiteSpace=wrap;html=1;fillColor=#0050ef;fontColor=#ffffff;strokeColor=#001DBC;" parent="1" vertex="1">
          <mxGeometry x="-2374" y="90" width="140" height="30" as="geometry" />
        </mxCell>
        <mxCell id="S80xQoVA_Cn7VEeKXndC-212" value="CreateMatch" style="rounded=0;whiteSpace=wrap;html=1;fillColor=#0050ef;fontColor=#ffffff;strokeColor=#001DBC;" parent="1" vertex="1">
          <mxGeometry x="-2184" y="40" width="140" height="30" as="geometry" />
        </mxCell>
        <mxCell id="S80xQoVA_Cn7VEeKXndC-225" style="edgeStyle=orthogonalEdgeStyle;rounded=0;orthogonalLoop=1;jettySize=auto;html=1;exitX=1;exitY=0.5;exitDx=0;exitDy=0;entryX=0.5;entryY=1;entryDx=0;entryDy=0;" parent="1" source="S80xQoVA_Cn7VEeKXndC-221" target="S80xQoVA_Cn7VEeKXndC-179" edge="1">
          <mxGeometry relative="1" as="geometry">
            <Array as="points">
              <mxPoint x="1500" y="390" />
              <mxPoint x="1500" y="290" />
              <mxPoint x="1490" y="290" />
            </Array>
          </mxGeometry>
        </mxCell>
        <mxCell id="S80xQoVA_Cn7VEeKXndC-231" style="edgeStyle=orthogonalEdgeStyle;rounded=0;orthogonalLoop=1;jettySize=auto;html=1;exitX=1;exitY=0.5;exitDx=0;exitDy=0;entryX=0;entryY=0.5;entryDx=0;entryDy=0;" parent="1" source="S80xQoVA_Cn7VEeKXndC-210" target="S80xQoVA_Cn7VEeKXndC-212" edge="1">
          <mxGeometry relative="1" as="geometry">
            <Array as="points">
              <mxPoint x="-2172" y="-455" />
              <mxPoint x="-2172" y="-140" />
              <mxPoint x="-2234" y="-140" />
              <mxPoint x="-2234" y="55" />
            </Array>
          </mxGeometry>
        </mxCell>
        <mxCell id="S80xQoVA_Cn7VEeKXndC-233" value="" style="rounded=1;whiteSpace=wrap;html=1;" parent="1" vertex="1">
          <mxGeometry x="-1550" y="130" width="1520" height="170" as="geometry" />
        </mxCell>
        <mxCell id="S80xQoVA_Cn7VEeKXndC-238" style="edgeStyle=orthogonalEdgeStyle;rounded=0;orthogonalLoop=1;jettySize=auto;html=1;exitX=1;exitY=0.5;exitDx=0;exitDy=0;entryX=0.5;entryY=1;entryDx=0;entryDy=0;" parent="1" source="S80xQoVA_Cn7VEeKXndC-234" target="S80xQoVA_Cn7VEeKXndC-237" edge="1">
          <mxGeometry relative="1" as="geometry" />
        </mxCell>
        <mxCell id="S80xQoVA_Cn7VEeKXndC-234" value="CreateMatch" style="rounded=0;whiteSpace=wrap;html=1;fillColor=#0050ef;fontColor=#ffffff;strokeColor=#001DBC;" parent="1" vertex="1">
          <mxGeometry x="-1520" y="250" width="140" height="30" as="geometry" />
        </mxCell>
        <mxCell id="S80xQoVA_Cn7VEeKXndC-235" value="" style="swimlane;startSize=0;fontSize=12;strokeWidth=3;" parent="1" vertex="1">
          <mxGeometry x="-1560" y="330" width="1550" height="480" as="geometry">
            <mxRectangle x="-1560" y="345" width="50" height="40" as="alternateBounds" />
          </mxGeometry>
        </mxCell>
        <mxCell id="S80xQoVA_Cn7VEeKXndC-249" style="edgeStyle=orthogonalEdgeStyle;rounded=0;orthogonalLoop=1;jettySize=auto;html=1;exitX=1;exitY=0.5;exitDx=0;exitDy=0;" parent="S80xQoVA_Cn7VEeKXndC-235" source="S80xQoVA_Cn7VEeKXndC-244" target="S80xQoVA_Cn7VEeKXndC-245" edge="1">
          <mxGeometry relative="1" as="geometry" />
        </mxCell>
        <mxCell id="S80xQoVA_Cn7VEeKXndC-244" value="KStream Consumer" style="ellipse;whiteSpace=wrap;html=1;aspect=fixed;fillColor=#FF0000;" parent="S80xQoVA_Cn7VEeKXndC-235" vertex="1">
          <mxGeometry x="430" y="230" width="60" height="60" as="geometry" />
        </mxCell>
        <mxCell id="S80xQoVA_Cn7VEeKXndC-251" style="edgeStyle=orthogonalEdgeStyle;rounded=0;orthogonalLoop=1;jettySize=auto;html=1;exitX=0.5;exitY=1;exitDx=0;exitDy=0;entryX=0.5;entryY=0;entryDx=0;entryDy=0;entryPerimeter=0;" parent="S80xQoVA_Cn7VEeKXndC-235" source="S80xQoVA_Cn7VEeKXndC-245" target="S80xQoVA_Cn7VEeKXndC-250" edge="1">
          <mxGeometry relative="1" as="geometry" />
        </mxCell>
        <mxCell id="S80xQoVA_Cn7VEeKXndC-258" style="edgeStyle=orthogonalEdgeStyle;rounded=0;orthogonalLoop=1;jettySize=auto;html=1;exitX=1;exitY=0.5;exitDx=0;exitDy=0;entryX=0;entryY=0.75;entryDx=0;entryDy=0;" parent="S80xQoVA_Cn7VEeKXndC-235" source="S80xQoVA_Cn7VEeKXndC-245" target="S80xQoVA_Cn7VEeKXndC-254" edge="1">
          <mxGeometry relative="1" as="geometry">
            <Array as="points">
              <mxPoint x="640" y="260" />
              <mxPoint x="640" y="188" />
            </Array>
          </mxGeometry>
        </mxCell>
        <mxCell id="S80xQoVA_Cn7VEeKXndC-278" value="" style="edgeStyle=orthogonalEdgeStyle;rounded=0;orthogonalLoop=1;jettySize=auto;html=1;" parent="S80xQoVA_Cn7VEeKXndC-235" source="S80xQoVA_Cn7VEeKXndC-245" target="S80xQoVA_Cn7VEeKXndC-277" edge="1">
          <mxGeometry relative="1" as="geometry" />
        </mxCell>
        <mxCell id="S80xQoVA_Cn7VEeKXndC-245" value="KTable" style="whiteSpace=wrap;html=1;aspect=fixed;fillColor=#008a00;fontColor=#ffffff;strokeColor=#005700;" parent="S80xQoVA_Cn7VEeKXndC-235" vertex="1">
          <mxGeometry x="560" y="235" width="50" height="50" as="geometry" />
        </mxCell>
        <mxCell id="S80xQoVA_Cn7VEeKXndC-248" value="Key: RoomId&lt;br&gt;Value: {Player1, Player2,&lt;br&gt;Type, Status}" style="text;html=1;align=center;verticalAlign=middle;resizable=0;points=[];autosize=1;strokeColor=none;fillColor=none;" parent="S80xQoVA_Cn7VEeKXndC-235" vertex="1">
          <mxGeometry x="380" y="300" width="160" height="60" as="geometry" />
        </mxCell>
        <mxCell id="S80xQoVA_Cn7VEeKXndC-250" value="Match Table" style="strokeWidth=2;html=1;shape=mxgraph.flowchart.database;whiteSpace=wrap;fillColor=#C24E88;" parent="S80xQoVA_Cn7VEeKXndC-235" vertex="1">
          <mxGeometry x="560" y="350" width="50" height="55" as="geometry" />
        </mxCell>
        <mxCell id="S80xQoVA_Cn7VEeKXndC-257" style="edgeStyle=orthogonalEdgeStyle;rounded=0;orthogonalLoop=1;jettySize=auto;html=1;exitX=1;exitY=0.5;exitDx=0;exitDy=0;entryX=0;entryY=0.25;entryDx=0;entryDy=0;" parent="S80xQoVA_Cn7VEeKXndC-235" source="S80xQoVA_Cn7VEeKXndC-252" target="S80xQoVA_Cn7VEeKXndC-254" edge="1">
          <mxGeometry relative="1" as="geometry">
            <Array as="points">
              <mxPoint x="640" y="120" />
              <mxPoint x="640" y="163" />
            </Array>
          </mxGeometry>
        </mxCell>
        <mxCell id="S80xQoVA_Cn7VEeKXndC-252" value="KStream Consumer" style="ellipse;whiteSpace=wrap;html=1;aspect=fixed;fillColor=#FF0000;" parent="S80xQoVA_Cn7VEeKXndC-235" vertex="1">
          <mxGeometry x="520" y="90" width="60" height="60" as="geometry" />
        </mxCell>
        <mxCell id="S80xQoVA_Cn7VEeKXndC-260" style="edgeStyle=orthogonalEdgeStyle;rounded=0;orthogonalLoop=1;jettySize=auto;html=1;exitX=1;exitY=0.5;exitDx=0;exitDy=0;entryX=0;entryY=0.5;entryDx=0;entryDy=0;" parent="S80xQoVA_Cn7VEeKXndC-235" source="S80xQoVA_Cn7VEeKXndC-254" target="S80xQoVA_Cn7VEeKXndC-259" edge="1">
          <mxGeometry relative="1" as="geometry" />
        </mxCell>
        <mxCell id="S80xQoVA_Cn7VEeKXndC-254" value="Join()" style="whiteSpace=wrap;html=1;aspect=fixed;fillColor=#008a00;fontColor=#ffffff;strokeColor=#005700;" parent="S80xQoVA_Cn7VEeKXndC-235" vertex="1">
          <mxGeometry x="683" y="150" width="50" height="50" as="geometry" />
        </mxCell>
        <mxCell id="S80xQoVA_Cn7VEeKXndC-262" value="" style="edgeStyle=orthogonalEdgeStyle;rounded=0;orthogonalLoop=1;jettySize=auto;html=1;" parent="S80xQoVA_Cn7VEeKXndC-235" source="S80xQoVA_Cn7VEeKXndC-259" target="S80xQoVA_Cn7VEeKXndC-261" edge="1">
          <mxGeometry relative="1" as="geometry" />
        </mxCell>
        <mxCell id="S80xQoVA_Cn7VEeKXndC-266" style="edgeStyle=orthogonalEdgeStyle;rounded=0;orthogonalLoop=1;jettySize=auto;html=1;exitX=1;exitY=0.5;exitDx=0;exitDy=0;entryX=0.5;entryY=1;entryDx=0;entryDy=0;" parent="S80xQoVA_Cn7VEeKXndC-235" source="S80xQoVA_Cn7VEeKXndC-259" target="S80xQoVA_Cn7VEeKXndC-265" edge="1">
          <mxGeometry relative="1" as="geometry" />
        </mxCell>
        <mxCell id="S80xQoVA_Cn7VEeKXndC-259" value="Aggregate" style="whiteSpace=wrap;html=1;aspect=fixed;fillColor=#008a00;fontColor=#ffffff;strokeColor=#005700;" parent="S80xQoVA_Cn7VEeKXndC-235" vertex="1">
          <mxGeometry x="770" y="140" width="70" height="70" as="geometry" />
        </mxCell>
        <mxCell id="S80xQoVA_Cn7VEeKXndC-261" value="Filter&lt;br&gt;Completed" style="whiteSpace=wrap;html=1;aspect=fixed;fillColor=#008a00;fontColor=#ffffff;strokeColor=#005700;" parent="S80xQoVA_Cn7VEeKXndC-235" vertex="1">
          <mxGeometry x="772.5" y="35" width="65" height="65" as="geometry" />
        </mxCell>
        <mxCell id="S80xQoVA_Cn7VEeKXndC-265" value="Filter&lt;br&gt;NewStatus" style="whiteSpace=wrap;html=1;aspect=fixed;fillColor=#008a00;fontColor=#ffffff;strokeColor=#005700;" parent="S80xQoVA_Cn7VEeKXndC-235" vertex="1">
          <mxGeometry x="860" y="35" width="65" height="65" as="geometry" />
        </mxCell>
        <mxCell id="S80xQoVA_Cn7VEeKXndC-264" value="ToombStone message" style="text;html=1;align=center;verticalAlign=middle;resizable=0;points=[];autosize=1;strokeColor=none;fillColor=none;" parent="S80xQoVA_Cn7VEeKXndC-235" vertex="1">
          <mxGeometry x="670" y="5" width="140" height="30" as="geometry" />
        </mxCell>
        <mxCell id="S80xQoVA_Cn7VEeKXndC-285" style="edgeStyle=orthogonalEdgeStyle;rounded=0;orthogonalLoop=1;jettySize=auto;html=1;exitX=1;exitY=0.5;exitDx=0;exitDy=0;entryX=0;entryY=0.5;entryDx=0;entryDy=0;" parent="S80xQoVA_Cn7VEeKXndC-235" source="S80xQoVA_Cn7VEeKXndC-277" target="S80xQoVA_Cn7VEeKXndC-284" edge="1">
          <mxGeometry relative="1" as="geometry" />
        </mxCell>
        <mxCell id="S80xQoVA_Cn7VEeKXndC-277" value="filter()" style="whiteSpace=wrap;html=1;aspect=fixed;fillColor=#008a00;fontColor=#ffffff;strokeColor=#005700;" parent="S80xQoVA_Cn7VEeKXndC-235" vertex="1">
          <mxGeometry x="710" y="285" width="50" height="50" as="geometry" />
        </mxCell>
        <mxCell id="S80xQoVA_Cn7VEeKXndC-279" value="Take only finished matches" style="text;html=1;align=center;verticalAlign=middle;resizable=0;points=[];autosize=1;strokeColor=none;fillColor=none;" parent="S80xQoVA_Cn7VEeKXndC-235" vertex="1">
          <mxGeometry x="650" y="335" width="170" height="30" as="geometry" />
        </mxCell>
        <mxCell id="S80xQoVA_Cn7VEeKXndC-287" value="" style="edgeStyle=orthogonalEdgeStyle;rounded=0;orthogonalLoop=1;jettySize=auto;html=1;" parent="S80xQoVA_Cn7VEeKXndC-235" source="S80xQoVA_Cn7VEeKXndC-284" target="S80xQoVA_Cn7VEeKXndC-286" edge="1">
          <mxGeometry relative="1" as="geometry" />
        </mxCell>
        <mxCell id="S80xQoVA_Cn7VEeKXndC-284" value="mapValues()" style="whiteSpace=wrap;html=1;aspect=fixed;fillColor=#008a00;fontColor=#ffffff;strokeColor=#005700;" parent="S80xQoVA_Cn7VEeKXndC-235" vertex="1">
          <mxGeometry x="850" y="272.5" width="75" height="75" as="geometry" />
        </mxCell>
        <mxCell id="S80xQoVA_Cn7VEeKXndC-286" value="Aggregate()" style="whiteSpace=wrap;html=1;aspect=fixed;fillColor=#008a00;fontColor=#ffffff;strokeColor=#005700;" parent="S80xQoVA_Cn7VEeKXndC-235" vertex="1">
          <mxGeometry x="990" y="275.62" width="68.75" height="68.75" as="geometry" />
        </mxCell>
        <mxCell id="S80xQoVA_Cn7VEeKXndC-288" value="Key:MatchID&lt;br&gt;Value: {WinnerID, LooserID,&lt;br&gt;&amp;nbsp;PlayerLevel1, PlayerLevel2}" style="text;html=1;align=center;verticalAlign=middle;resizable=0;points=[];autosize=1;strokeColor=none;fillColor=none;" parent="S80xQoVA_Cn7VEeKXndC-235" vertex="1">
          <mxGeometry x="797.5" y="350" width="180" height="60" as="geometry" />
        </mxCell>
        <mxCell id="S80xQoVA_Cn7VEeKXndC-255" value="Key: RoomId&lt;br&gt;Value: Update" style="text;html=1;align=center;verticalAlign=middle;resizable=0;points=[];autosize=1;strokeColor=none;fillColor=none;" parent="S80xQoVA_Cn7VEeKXndC-235" vertex="1">
          <mxGeometry x="535" y="190" width="100" height="40" as="geometry" />
        </mxCell>
        <mxCell id="S80xQoVA_Cn7VEeKXndC-241" style="edgeStyle=orthogonalEdgeStyle;rounded=0;orthogonalLoop=1;jettySize=auto;html=1;exitX=1;exitY=0.5;exitDx=0;exitDy=0;entryX=0;entryY=0.5;entryDx=0;entryDy=0;" parent="1" source="S80xQoVA_Cn7VEeKXndC-237" target="S80xQoVA_Cn7VEeKXndC-239" edge="1">
          <mxGeometry relative="1" as="geometry" />
        </mxCell>
        <mxCell id="S80xQoVA_Cn7VEeKXndC-242" style="edgeStyle=orthogonalEdgeStyle;rounded=0;orthogonalLoop=1;jettySize=auto;html=1;exitX=1;exitY=0.5;exitDx=0;exitDy=0;entryX=0;entryY=0.5;entryDx=0;entryDy=0;" parent="1" source="S80xQoVA_Cn7VEeKXndC-237" target="S80xQoVA_Cn7VEeKXndC-240" edge="1">
          <mxGeometry relative="1" as="geometry" />
        </mxCell>
        <mxCell id="S80xQoVA_Cn7VEeKXndC-237" value="MatchService" style="whiteSpace=wrap;html=1;aspect=fixed;fillColor=#FF8000;" parent="1" vertex="1">
          <mxGeometry x="-1330" width="80" height="80" as="geometry" />
        </mxCell>
        <mxCell id="S80xQoVA_Cn7VEeKXndC-253" style="edgeStyle=orthogonalEdgeStyle;rounded=0;orthogonalLoop=1;jettySize=auto;html=1;exitX=1;exitY=0.5;exitDx=0;exitDy=0;" parent="1" source="S80xQoVA_Cn7VEeKXndC-239" target="S80xQoVA_Cn7VEeKXndC-252" edge="1">
          <mxGeometry relative="1" as="geometry" />
        </mxCell>
        <mxCell id="S80xQoVA_Cn7VEeKXndC-239" value="KUpdateMatch" style="rounded=0;whiteSpace=wrap;html=1;fillColor=#0050ef;fontColor=#ffffff;strokeColor=#001DBC;" parent="1" vertex="1">
          <mxGeometry x="-1170" y="170" width="140" height="30" as="geometry" />
        </mxCell>
        <mxCell id="S80xQoVA_Cn7VEeKXndC-247" style="edgeStyle=orthogonalEdgeStyle;rounded=0;orthogonalLoop=1;jettySize=auto;html=1;exitX=0.5;exitY=1;exitDx=0;exitDy=0;entryX=0.5;entryY=0;entryDx=0;entryDy=0;" parent="1" source="S80xQoVA_Cn7VEeKXndC-240" target="S80xQoVA_Cn7VEeKXndC-244" edge="1">
          <mxGeometry relative="1" as="geometry" />
        </mxCell>
        <mxCell id="S80xQoVA_Cn7VEeKXndC-272" style="edgeStyle=orthogonalEdgeStyle;rounded=0;orthogonalLoop=1;jettySize=auto;html=1;exitX=1;exitY=0.25;exitDx=0;exitDy=0;entryX=0;entryY=0.25;entryDx=0;entryDy=0;" parent="1" source="S80xQoVA_Cn7VEeKXndC-240" target="S80xQoVA_Cn7VEeKXndC-243" edge="1">
          <mxGeometry relative="1" as="geometry">
            <Array as="points">
              <mxPoint x="-760" y="237" />
              <mxPoint x="-760" y="10" />
            </Array>
          </mxGeometry>
        </mxCell>
        <mxCell id="S80xQoVA_Cn7VEeKXndC-240" value="NewRoom" style="rounded=0;whiteSpace=wrap;html=1;fillColor=#0050ef;fontColor=#ffffff;strokeColor=#001DBC;" parent="1" vertex="1">
          <mxGeometry x="-1170" y="220" width="140" height="40" as="geometry" />
        </mxCell>
        <mxCell id="S80xQoVA_Cn7VEeKXndC-243" value="User" style="whiteSpace=wrap;html=1;aspect=fixed;fillColor=#FF8000;" parent="1" vertex="1">
          <mxGeometry x="-360" y="-10" width="80" height="80" as="geometry" />
        </mxCell>
        <mxCell id="S80xQoVA_Cn7VEeKXndC-263" style="edgeStyle=orthogonalEdgeStyle;rounded=0;orthogonalLoop=1;jettySize=auto;html=1;exitX=0.5;exitY=0;exitDx=0;exitDy=0;entryX=1;entryY=0.75;entryDx=0;entryDy=0;" parent="1" source="S80xQoVA_Cn7VEeKXndC-261" target="S80xQoVA_Cn7VEeKXndC-240" edge="1">
          <mxGeometry relative="1" as="geometry" />
        </mxCell>
        <mxCell id="S80xQoVA_Cn7VEeKXndC-267" style="edgeStyle=orthogonalEdgeStyle;rounded=0;orthogonalLoop=1;jettySize=auto;html=1;exitX=0.5;exitY=0;exitDx=0;exitDy=0;entryX=1;entryY=0.75;entryDx=0;entryDy=0;" parent="1" source="S80xQoVA_Cn7VEeKXndC-265" target="S80xQoVA_Cn7VEeKXndC-240" edge="1">
          <mxGeometry relative="1" as="geometry">
            <Array as="points">
              <mxPoint x="-668" y="250" />
            </Array>
          </mxGeometry>
        </mxCell>
        <mxCell id="S80xQoVA_Cn7VEeKXndC-270" style="edgeStyle=orthogonalEdgeStyle;rounded=0;orthogonalLoop=1;jettySize=auto;html=1;exitX=0.5;exitY=0;exitDx=0;exitDy=0;entryX=0;entryY=0.5;entryDx=0;entryDy=0;" parent="1" source="S80xQoVA_Cn7VEeKXndC-268" target="S80xQoVA_Cn7VEeKXndC-243" edge="1">
          <mxGeometry relative="1" as="geometry" />
        </mxCell>
        <mxCell id="S80xQoVA_Cn7VEeKXndC-268" value="MatchUpdate" style="rounded=0;whiteSpace=wrap;html=1;fillColor=#0050ef;fontColor=#ffffff;strokeColor=#001DBC;" parent="1" vertex="1">
          <mxGeometry x="-460" y="200" width="140" height="30" as="geometry" />
        </mxCell>
        <mxCell id="S80xQoVA_Cn7VEeKXndC-269" style="edgeStyle=orthogonalEdgeStyle;rounded=0;orthogonalLoop=1;jettySize=auto;html=1;exitX=1;exitY=0.5;exitDx=0;exitDy=0;entryX=0.5;entryY=1;entryDx=0;entryDy=0;" parent="1" source="S80xQoVA_Cn7VEeKXndC-259" target="S80xQoVA_Cn7VEeKXndC-268" edge="1">
          <mxGeometry relative="1" as="geometry" />
        </mxCell>
        <mxCell id="S80xQoVA_Cn7VEeKXndC-271" value="" style="endArrow=none;dashed=1;html=1;rounded=0;exitX=1;exitY=0.5;exitDx=0;exitDy=0;entryX=0;entryY=0.5;entryDx=0;entryDy=0;strokeWidth=3;" parent="1" source="S80xQoVA_Cn7VEeKXndC-212" target="S80xQoVA_Cn7VEeKXndC-234" edge="1">
          <mxGeometry width="50" height="50" relative="1" as="geometry">
            <mxPoint x="-2050" y="100" as="sourcePoint" />
            <mxPoint x="-2000" y="50" as="targetPoint" />
          </mxGeometry>
        </mxCell>
        <mxCell id="S80xQoVA_Cn7VEeKXndC-292" value="ScoreUpdate" style="rounded=0;whiteSpace=wrap;html=1;fillColor=#0050ef;fontColor=#ffffff;strokeColor=#001DBC;" parent="1" vertex="1">
          <mxGeometry x="-280" y="250" width="140" height="30" as="geometry" />
        </mxCell>
        <mxCell id="S80xQoVA_Cn7VEeKXndC-293" style="edgeStyle=orthogonalEdgeStyle;rounded=0;orthogonalLoop=1;jettySize=auto;html=1;exitX=1;exitY=0.5;exitDx=0;exitDy=0;entryX=0.5;entryY=1;entryDx=0;entryDy=0;" parent="1" source="S80xQoVA_Cn7VEeKXndC-286" target="S80xQoVA_Cn7VEeKXndC-292" edge="1">
          <mxGeometry relative="1" as="geometry" />
        </mxCell>
        <mxCell id="S80xQoVA_Cn7VEeKXndC-296" style="edgeStyle=orthogonalEdgeStyle;rounded=0;orthogonalLoop=1;jettySize=auto;html=1;exitX=0.5;exitY=1;exitDx=0;exitDy=0;" parent="1" source="S80xQoVA_Cn7VEeKXndC-294" target="S80xQoVA_Cn7VEeKXndC-295" edge="1">
          <mxGeometry relative="1" as="geometry" />
        </mxCell>
        <mxCell id="S80xQoVA_Cn7VEeKXndC-294" value="ScoreUpdate" style="rounded=0;whiteSpace=wrap;html=1;fillColor=#0050ef;fontColor=#ffffff;strokeColor=#001DBC;" parent="1" vertex="1">
          <mxGeometry x="-1500" y="1080" width="140" height="30" as="geometry" />
        </mxCell>
        <mxCell id="S80xQoVA_Cn7VEeKXndC-298" value="" style="edgeStyle=orthogonalEdgeStyle;rounded=0;orthogonalLoop=1;jettySize=auto;html=1;" parent="1" source="S80xQoVA_Cn7VEeKXndC-295" target="S80xQoVA_Cn7VEeKXndC-297" edge="1">
          <mxGeometry relative="1" as="geometry" />
        </mxCell>
        <mxCell id="S80xQoVA_Cn7VEeKXndC-295" value="KStream Consumer" style="ellipse;whiteSpace=wrap;html=1;aspect=fixed;fillColor=#a20025;fontColor=#ffffff;strokeColor=#6F0000;" parent="1" vertex="1">
          <mxGeometry x="-1470" y="1430" width="80" height="80" as="geometry" />
        </mxCell>
        <mxCell id="S80xQoVA_Cn7VEeKXndC-300" style="edgeStyle=orthogonalEdgeStyle;rounded=0;orthogonalLoop=1;jettySize=auto;html=1;exitX=1;exitY=0.5;exitDx=0;exitDy=0;entryX=0;entryY=0.5;entryDx=0;entryDy=0;" parent="1" source="S80xQoVA_Cn7VEeKXndC-297" target="S80xQoVA_Cn7VEeKXndC-299" edge="1">
          <mxGeometry relative="1" as="geometry" />
        </mxCell>
        <mxCell id="S80xQoVA_Cn7VEeKXndC-297" value="GroupBy()" style="whiteSpace=wrap;html=1;aspect=fixed;fillColor=#008a00;fontColor=#ffffff;strokeColor=#005700;" parent="1" vertex="1">
          <mxGeometry x="-1305" y="1437.5" width="65" height="65" as="geometry" />
        </mxCell>
        <mxCell id="S80xQoVA_Cn7VEeKXndC-302" value="" style="edgeStyle=orthogonalEdgeStyle;rounded=0;orthogonalLoop=1;jettySize=auto;html=1;" parent="1" source="S80xQoVA_Cn7VEeKXndC-299" target="S80xQoVA_Cn7VEeKXndC-301" edge="1">
          <mxGeometry relative="1" as="geometry" />
        </mxCell>
        <mxCell id="S80xQoVA_Cn7VEeKXndC-304" value="" style="edgeStyle=orthogonalEdgeStyle;rounded=0;orthogonalLoop=1;jettySize=auto;html=1;" parent="1" source="S80xQoVA_Cn7VEeKXndC-299" target="S80xQoVA_Cn7VEeKXndC-303" edge="1">
          <mxGeometry relative="1" as="geometry" />
        </mxCell>
        <mxCell id="S80xQoVA_Cn7VEeKXndC-299" value="KTable" style="whiteSpace=wrap;html=1;aspect=fixed;fillColor=#008a00;fontColor=#ffffff;strokeColor=#005700;" parent="1" vertex="1">
          <mxGeometry x="-1145" y="1430" width="80" height="80" as="geometry" />
        </mxCell>
        <mxCell id="S80xQoVA_Cn7VEeKXndC-301" value="" style="strokeWidth=2;html=1;shape=mxgraph.flowchart.database;whiteSpace=wrap;" parent="1" vertex="1">
          <mxGeometry x="-1135" y="1570" width="60" height="60" as="geometry" />
        </mxCell>
        <mxCell id="S80xQoVA_Cn7VEeKXndC-306" style="edgeStyle=orthogonalEdgeStyle;rounded=0;orthogonalLoop=1;jettySize=auto;html=1;exitX=1;exitY=0.5;exitDx=0;exitDy=0;" parent="1" source="S80xQoVA_Cn7VEeKXndC-303" target="S80xQoVA_Cn7VEeKXndC-305" edge="1">
          <mxGeometry relative="1" as="geometry" />
        </mxCell>
        <mxCell id="S80xQoVA_Cn7VEeKXndC-303" value="Take Top 10" style="whiteSpace=wrap;html=1;aspect=fixed;fillColor=#008a00;fontColor=#ffffff;strokeColor=#005700;" parent="1" vertex="1">
          <mxGeometry x="-985" y="1430" width="80" height="80" as="geometry" />
        </mxCell>
        <mxCell id="S80xQoVA_Cn7VEeKXndC-305" value="KTable" style="whiteSpace=wrap;html=1;aspect=fixed;fillColor=#008a00;fontColor=#ffffff;strokeColor=#005700;" parent="1" vertex="1">
          <mxGeometry x="-842" y="1430" width="80" height="80" as="geometry" />
        </mxCell>
        <mxCell id="S80xQoVA_Cn7VEeKXndC-307" value="Key:PlayerId&lt;br&gt;Value: Score" style="text;html=1;align=center;verticalAlign=middle;resizable=0;points=[];autosize=1;strokeColor=none;fillColor=none;" parent="1" vertex="1">
          <mxGeometry x="-1155" y="1380" width="90" height="40" as="geometry" />
        </mxCell>
        <mxCell id="S80xQoVA_Cn7VEeKXndC-311" style="edgeStyle=orthogonalEdgeStyle;rounded=0;orthogonalLoop=1;jettySize=auto;html=1;exitX=0.5;exitY=1;exitDx=0;exitDy=0;entryX=0;entryY=0.5;entryDx=0;entryDy=0;" parent="1" source="S80xQoVA_Cn7VEeKXndC-308" target="S80xQoVA_Cn7VEeKXndC-310" edge="1">
          <mxGeometry relative="1" as="geometry" />
        </mxCell>
        <mxCell id="S80xQoVA_Cn7VEeKXndC-308" value="DeckUpdate" style="rounded=0;whiteSpace=wrap;html=1;fillColor=#0050ef;fontColor=#ffffff;strokeColor=#001DBC;" parent="1" vertex="1">
          <mxGeometry x="10" y="250" width="140" height="30" as="geometry" />
        </mxCell>
        <mxCell id="Q8wgH2nms2r7PHddlLwt-33" style="edgeStyle=orthogonalEdgeStyle;rounded=0;orthogonalLoop=1;jettySize=auto;html=1;exitX=0.5;exitY=1;exitDx=0;exitDy=0;entryX=0;entryY=0.5;entryDx=0;entryDy=0;" parent="1" source="Q8wgH2nms2r7PHddlLwt-29" target="Q8wgH2nms2r7PHddlLwt-32" edge="1">
          <mxGeometry relative="1" as="geometry" />
        </mxCell>
        <mxCell id="Q8wgH2nms2r7PHddlLwt-29" value="CreateDeck" style="rounded=0;whiteSpace=wrap;html=1;fillColor=#0050ef;fontColor=#ffffff;strokeColor=#001DBC;" parent="1" vertex="1">
          <mxGeometry x="100" y="200" width="140" height="30" as="geometry" />
        </mxCell>
        <mxCell id="Q8wgH2nms2r7PHddlLwt-41" style="edgeStyle=orthogonalEdgeStyle;rounded=0;orthogonalLoop=1;jettySize=auto;html=1;exitX=1;exitY=0.5;exitDx=0;exitDy=0;entryX=1;entryY=0.5;entryDx=0;entryDy=0;" parent="1" source="Q8wgH2nms2r7PHddlLwt-38" target="S80xQoVA_Cn7VEeKXndC-130" edge="1">
          <mxGeometry relative="1" as="geometry">
            <Array as="points">
              <mxPoint x="1160" y="600" />
              <mxPoint x="1160" y="170" />
              <mxPoint x="480" y="170" />
              <mxPoint x="480" y="215" />
            </Array>
          </mxGeometry>
        </mxCell>
        <mxCell id="A_736V5G-LPlrZBNgWuV-17" style="edgeStyle=orthogonalEdgeStyle;rounded=0;orthogonalLoop=1;jettySize=auto;html=1;exitX=1;exitY=0.5;exitDx=0;exitDy=0;" parent="1" source="A_736V5G-LPlrZBNgWuV-1" target="A_736V5G-LPlrZBNgWuV-16" edge="1">
          <mxGeometry relative="1" as="geometry" />
        </mxCell>
        <mxCell id="A_736V5G-LPlrZBNgWuV-1" value="Sync" style="whiteSpace=wrap;html=1;aspect=fixed;fillColor=#FF8000;" parent="1" vertex="1">
          <mxGeometry x="-3014" y="1754" width="80" height="80" as="geometry" />
        </mxCell>
        <mxCell id="A_736V5G-LPlrZBNgWuV-5" style="edgeStyle=orthogonalEdgeStyle;rounded=0;orthogonalLoop=1;jettySize=auto;html=1;exitX=1;exitY=0.5;exitDx=0;exitDy=0;entryX=0;entryY=0.5;entryDx=0;entryDy=0;" parent="1" source="A_736V5G-LPlrZBNgWuV-2" target="A_736V5G-LPlrZBNgWuV-4" edge="1">
          <mxGeometry relative="1" as="geometry" />
        </mxCell>
        <mxCell id="A_736V5G-LPlrZBNgWuV-2" value="KStream Consumer" style="ellipse;whiteSpace=wrap;html=1;aspect=fixed;fillColor=#FF0000;" parent="1" vertex="1">
          <mxGeometry x="-2810" y="1900" width="80" height="80" as="geometry" />
        </mxCell>
        <mxCell id="A_736V5G-LPlrZBNgWuV-9" style="edgeStyle=orthogonalEdgeStyle;rounded=0;orthogonalLoop=1;jettySize=auto;html=1;exitX=1;exitY=0.5;exitDx=0;exitDy=0;entryX=0;entryY=0.5;entryDx=0;entryDy=0;" parent="1" source="A_736V5G-LPlrZBNgWuV-4" target="A_736V5G-LPlrZBNgWuV-8" edge="1">
          <mxGeometry relative="1" as="geometry" />
        </mxCell>
        <mxCell id="A_736V5G-LPlrZBNgWuV-4" value="map()" style="whiteSpace=wrap;html=1;aspect=fixed;fillColor=#008a00;fontColor=#ffffff;strokeColor=#005700;" parent="1" vertex="1">
          <mxGeometry x="-2644" y="1900" width="80" height="80" as="geometry" />
        </mxCell>
        <mxCell id="A_736V5G-LPlrZBNgWuV-6" value="Take latest block, contract address" style="text;html=1;align=center;verticalAlign=middle;resizable=0;points=[];autosize=1;strokeColor=none;fillColor=none;" parent="1" vertex="1">
          <mxGeometry x="-2704" y="1990" width="210" height="30" as="geometry" />
        </mxCell>
        <mxCell id="A_736V5G-LPlrZBNgWuV-7" value="and event type" style="text;html=1;align=center;verticalAlign=middle;resizable=0;points=[];autosize=1;strokeColor=none;fillColor=none;" parent="1" vertex="1">
          <mxGeometry x="-2655" y="2010" width="100" height="30" as="geometry" />
        </mxCell>
        <mxCell id="A_736V5G-LPlrZBNgWuV-13" style="edgeStyle=orthogonalEdgeStyle;rounded=0;orthogonalLoop=1;jettySize=auto;html=1;exitX=1;exitY=0.5;exitDx=0;exitDy=0;" parent="1" source="A_736V5G-LPlrZBNgWuV-8" target="A_736V5G-LPlrZBNgWuV-12" edge="1">
          <mxGeometry relative="1" as="geometry" />
        </mxCell>
        <mxCell id="A_736V5G-LPlrZBNgWuV-8" value="KTable" style="whiteSpace=wrap;html=1;aspect=fixed;fillColor=#008a00;fontColor=#ffffff;strokeColor=#005700;" parent="1" vertex="1">
          <mxGeometry x="-2420" y="1900" width="80" height="80" as="geometry" />
        </mxCell>
        <mxCell id="A_736V5G-LPlrZBNgWuV-10" value="Key: {Address, Function}" style="text;html=1;align=center;verticalAlign=middle;resizable=0;points=[];autosize=1;strokeColor=none;fillColor=none;" parent="1" vertex="1">
          <mxGeometry x="-2460" y="1980" width="160" height="30" as="geometry" />
        </mxCell>
        <mxCell id="A_736V5G-LPlrZBNgWuV-11" value="Value: {Latest block, latest txHash}" style="text;html=1;align=center;verticalAlign=middle;resizable=0;points=[];autosize=1;strokeColor=none;fillColor=none;" parent="1" vertex="1">
          <mxGeometry x="-2481" y="2005" width="210" height="30" as="geometry" />
        </mxCell>
        <mxCell id="A_736V5G-LPlrZBNgWuV-14" style="edgeStyle=orthogonalEdgeStyle;rounded=0;orthogonalLoop=1;jettySize=auto;html=1;exitX=0;exitY=0.5;exitDx=0;exitDy=0;exitPerimeter=0;entryX=0.5;entryY=1;entryDx=0;entryDy=0;" parent="1" source="A_736V5G-LPlrZBNgWuV-12" target="A_736V5G-LPlrZBNgWuV-1" edge="1">
          <mxGeometry relative="1" as="geometry" />
        </mxCell>
        <mxCell id="A_736V5G-LPlrZBNgWuV-15" value="Recovery" style="edgeLabel;html=1;align=center;verticalAlign=middle;resizable=0;points=[];fontSize=15;" parent="A_736V5G-LPlrZBNgWuV-14" vertex="1" connectable="0">
          <mxGeometry x="-0.194" y="1" relative="1" as="geometry">
            <mxPoint as="offset" />
          </mxGeometry>
        </mxCell>
        <mxCell id="A_736V5G-LPlrZBNgWuV-12" value="" style="shape=cylinder3;whiteSpace=wrap;html=1;boundedLbl=1;backgroundOutline=1;size=15;" parent="1" vertex="1">
          <mxGeometry x="-2264" y="2040" width="60" height="80" as="geometry" />
        </mxCell>
        <mxCell id="A_736V5G-LPlrZBNgWuV-18" style="edgeStyle=orthogonalEdgeStyle;rounded=0;orthogonalLoop=1;jettySize=auto;html=1;exitX=0.5;exitY=1;exitDx=0;exitDy=0;entryX=0;entryY=0.5;entryDx=0;entryDy=0;" parent="1" source="A_736V5G-LPlrZBNgWuV-16" target="A_736V5G-LPlrZBNgWuV-2" edge="1">
          <mxGeometry relative="1" as="geometry" />
        </mxCell>
        <mxCell id="A_736V5G-LPlrZBNgWuV-19" style="edgeStyle=orthogonalEdgeStyle;rounded=0;orthogonalLoop=1;jettySize=auto;html=1;exitX=1;exitY=0.5;exitDx=0;exitDy=0;" parent="1" source="A_736V5G-LPlrZBNgWuV-16" edge="1">
          <mxGeometry relative="1" as="geometry">
            <mxPoint x="-2500" y="1794.04347826087" as="targetPoint" />
          </mxGeometry>
        </mxCell>
        <mxCell id="A_736V5G-LPlrZBNgWuV-16" value="Events" style="rounded=0;whiteSpace=wrap;html=1;fillColor=#0050ef;fontColor=#ffffff;strokeColor=#001DBC;" parent="1" vertex="1">
          <mxGeometry x="-2918" y="1779" width="174" height="30" as="geometry" />
        </mxCell>
        <mxCell id="M90B2qkFFjyxvgEx6j84-31" style="edgeStyle=orthogonalEdgeStyle;rounded=0;orthogonalLoop=1;jettySize=auto;html=1;exitX=1;exitY=0.5;exitDx=0;exitDy=0;entryX=0.5;entryY=1;entryDx=0;entryDy=0;" edge="1" parent="1" source="M90B2qkFFjyxvgEx6j84-32" target="M90B2qkFFjyxvgEx6j84-61">
          <mxGeometry relative="1" as="geometry" />
        </mxCell>
        <mxCell id="M90B2qkFFjyxvgEx6j84-32" value="CreateNewMatch" style="rounded=0;whiteSpace=wrap;html=1;fillColor=#0050ef;fontColor=#ffffff;strokeColor=#001DBC;" vertex="1" parent="1">
          <mxGeometry x="290" y="1385" width="140" height="30" as="geometry" />
        </mxCell>
        <mxCell id="M90B2qkFFjyxvgEx6j84-33" style="edgeStyle=orthogonalEdgeStyle;rounded=0;orthogonalLoop=1;jettySize=auto;html=1;exitX=1;exitY=0.5;exitDx=0;exitDy=0;" edge="1" parent="1" source="M90B2qkFFjyxvgEx6j84-34" target="M90B2qkFFjyxvgEx6j84-38">
          <mxGeometry relative="1" as="geometry" />
        </mxCell>
        <mxCell id="M90B2qkFFjyxvgEx6j84-34" value="KStream Consumer" style="ellipse;whiteSpace=wrap;html=1;aspect=fixed;fillColor=#FF0000;" vertex="1" parent="1">
          <mxGeometry x="655" y="1815" width="60" height="60" as="geometry" />
        </mxCell>
        <mxCell id="M90B2qkFFjyxvgEx6j84-35" style="edgeStyle=orthogonalEdgeStyle;rounded=0;orthogonalLoop=1;jettySize=auto;html=1;exitX=0.5;exitY=1;exitDx=0;exitDy=0;entryX=0.5;entryY=0;entryDx=0;entryDy=0;entryPerimeter=0;" edge="1" parent="1" source="M90B2qkFFjyxvgEx6j84-38" target="M90B2qkFFjyxvgEx6j84-40">
          <mxGeometry relative="1" as="geometry" />
        </mxCell>
        <mxCell id="M90B2qkFFjyxvgEx6j84-36" style="edgeStyle=orthogonalEdgeStyle;rounded=0;orthogonalLoop=1;jettySize=auto;html=1;exitX=1;exitY=0.5;exitDx=0;exitDy=0;entryX=0;entryY=0.75;entryDx=0;entryDy=0;" edge="1" parent="1" source="M90B2qkFFjyxvgEx6j84-38" target="M90B2qkFFjyxvgEx6j84-44">
          <mxGeometry relative="1" as="geometry">
            <Array as="points">
              <mxPoint x="865" y="1845" />
              <mxPoint x="865" y="1773" />
            </Array>
          </mxGeometry>
        </mxCell>
        <mxCell id="M90B2qkFFjyxvgEx6j84-37" value="" style="edgeStyle=orthogonalEdgeStyle;rounded=0;orthogonalLoop=1;jettySize=auto;html=1;" edge="1" parent="1" source="M90B2qkFFjyxvgEx6j84-38" target="M90B2qkFFjyxvgEx6j84-52">
          <mxGeometry relative="1" as="geometry" />
        </mxCell>
        <mxCell id="M90B2qkFFjyxvgEx6j84-38" value="KTable" style="whiteSpace=wrap;html=1;aspect=fixed;fillColor=#008a00;fontColor=#ffffff;strokeColor=#005700;" vertex="1" parent="1">
          <mxGeometry x="785" y="1820" width="50" height="50" as="geometry" />
        </mxCell>
        <mxCell id="M90B2qkFFjyxvgEx6j84-39" value="Key: RoomId&lt;br&gt;Value: {Player1, Player2,&lt;br&gt;Type, Status}" style="text;html=1;align=center;verticalAlign=middle;resizable=0;points=[];autosize=1;strokeColor=none;fillColor=none;" vertex="1" parent="1">
          <mxGeometry x="605" y="1885" width="160" height="60" as="geometry" />
        </mxCell>
        <mxCell id="M90B2qkFFjyxvgEx6j84-40" value="Match Table" style="strokeWidth=2;html=1;shape=mxgraph.flowchart.database;whiteSpace=wrap;fillColor=#C24E88;" vertex="1" parent="1">
          <mxGeometry x="785" y="1935" width="50" height="55" as="geometry" />
        </mxCell>
        <mxCell id="M90B2qkFFjyxvgEx6j84-41" style="edgeStyle=orthogonalEdgeStyle;rounded=0;orthogonalLoop=1;jettySize=auto;html=1;exitX=1;exitY=0.5;exitDx=0;exitDy=0;entryX=0;entryY=0.25;entryDx=0;entryDy=0;" edge="1" parent="1" source="M90B2qkFFjyxvgEx6j84-42" target="M90B2qkFFjyxvgEx6j84-44">
          <mxGeometry relative="1" as="geometry">
            <Array as="points">
              <mxPoint x="865" y="1705" />
              <mxPoint x="865" y="1748" />
            </Array>
          </mxGeometry>
        </mxCell>
        <mxCell id="M90B2qkFFjyxvgEx6j84-42" value="KStream Consumer" style="ellipse;whiteSpace=wrap;html=1;aspect=fixed;fillColor=#FF0000;" vertex="1" parent="1">
          <mxGeometry x="745" y="1675" width="60" height="60" as="geometry" />
        </mxCell>
        <mxCell id="M90B2qkFFjyxvgEx6j84-43" style="edgeStyle=orthogonalEdgeStyle;rounded=0;orthogonalLoop=1;jettySize=auto;html=1;exitX=1;exitY=0.5;exitDx=0;exitDy=0;entryX=0;entryY=0.5;entryDx=0;entryDy=0;" edge="1" parent="1" source="M90B2qkFFjyxvgEx6j84-44" target="M90B2qkFFjyxvgEx6j84-47">
          <mxGeometry relative="1" as="geometry" />
        </mxCell>
        <mxCell id="M90B2qkFFjyxvgEx6j84-44" value="Join()" style="whiteSpace=wrap;html=1;aspect=fixed;fillColor=#008a00;fontColor=#ffffff;strokeColor=#005700;" vertex="1" parent="1">
          <mxGeometry x="908" y="1735" width="50" height="50" as="geometry" />
        </mxCell>
        <mxCell id="M90B2qkFFjyxvgEx6j84-45" value="" style="edgeStyle=orthogonalEdgeStyle;rounded=0;orthogonalLoop=1;jettySize=auto;html=1;" edge="1" parent="1" source="M90B2qkFFjyxvgEx6j84-47" target="M90B2qkFFjyxvgEx6j84-48">
          <mxGeometry relative="1" as="geometry" />
        </mxCell>
        <mxCell id="M90B2qkFFjyxvgEx6j84-46" style="edgeStyle=orthogonalEdgeStyle;rounded=0;orthogonalLoop=1;jettySize=auto;html=1;exitX=1;exitY=0.5;exitDx=0;exitDy=0;entryX=0.5;entryY=1;entryDx=0;entryDy=0;" edge="1" parent="1" source="M90B2qkFFjyxvgEx6j84-47" target="M90B2qkFFjyxvgEx6j84-49">
          <mxGeometry relative="1" as="geometry" />
        </mxCell>
        <mxCell id="M90B2qkFFjyxvgEx6j84-47" value="Aggregate" style="whiteSpace=wrap;html=1;aspect=fixed;fillColor=#008a00;fontColor=#ffffff;strokeColor=#005700;" vertex="1" parent="1">
          <mxGeometry x="995" y="1725" width="70" height="70" as="geometry" />
        </mxCell>
        <mxCell id="M90B2qkFFjyxvgEx6j84-48" value="Filter&lt;br&gt;Completed" style="whiteSpace=wrap;html=1;aspect=fixed;fillColor=#008a00;fontColor=#ffffff;strokeColor=#005700;" vertex="1" parent="1">
          <mxGeometry x="997.5" y="1620" width="65" height="65" as="geometry" />
        </mxCell>
        <mxCell id="M90B2qkFFjyxvgEx6j84-49" value="Filter&lt;br&gt;NewStatus" style="whiteSpace=wrap;html=1;aspect=fixed;fillColor=#008a00;fontColor=#ffffff;strokeColor=#005700;" vertex="1" parent="1">
          <mxGeometry x="1085" y="1620" width="65" height="65" as="geometry" />
        </mxCell>
        <mxCell id="M90B2qkFFjyxvgEx6j84-50" value="ToombStone message" style="text;html=1;align=center;verticalAlign=middle;resizable=0;points=[];autosize=1;strokeColor=none;fillColor=none;" vertex="1" parent="1">
          <mxGeometry x="895" y="1590" width="140" height="30" as="geometry" />
        </mxCell>
        <mxCell id="M90B2qkFFjyxvgEx6j84-51" style="edgeStyle=orthogonalEdgeStyle;rounded=0;orthogonalLoop=1;jettySize=auto;html=1;exitX=1;exitY=0.5;exitDx=0;exitDy=0;entryX=0;entryY=0.5;entryDx=0;entryDy=0;" edge="1" parent="1" source="M90B2qkFFjyxvgEx6j84-52" target="M90B2qkFFjyxvgEx6j84-55">
          <mxGeometry relative="1" as="geometry" />
        </mxCell>
        <mxCell id="M90B2qkFFjyxvgEx6j84-52" value="filter()" style="whiteSpace=wrap;html=1;aspect=fixed;fillColor=#008a00;fontColor=#ffffff;strokeColor=#005700;" vertex="1" parent="1">
          <mxGeometry x="935" y="1870" width="50" height="50" as="geometry" />
        </mxCell>
        <mxCell id="M90B2qkFFjyxvgEx6j84-53" value="Take only finished matches" style="text;html=1;align=center;verticalAlign=middle;resizable=0;points=[];autosize=1;strokeColor=none;fillColor=none;" vertex="1" parent="1">
          <mxGeometry x="875" y="1920" width="170" height="30" as="geometry" />
        </mxCell>
        <mxCell id="M90B2qkFFjyxvgEx6j84-54" value="" style="edgeStyle=orthogonalEdgeStyle;rounded=0;orthogonalLoop=1;jettySize=auto;html=1;" edge="1" parent="1" source="M90B2qkFFjyxvgEx6j84-55" target="M90B2qkFFjyxvgEx6j84-56">
          <mxGeometry relative="1" as="geometry" />
        </mxCell>
        <mxCell id="M90B2qkFFjyxvgEx6j84-55" value="mapValues()" style="whiteSpace=wrap;html=1;aspect=fixed;fillColor=#008a00;fontColor=#ffffff;strokeColor=#005700;" vertex="1" parent="1">
          <mxGeometry x="1075" y="1857.5" width="75" height="75" as="geometry" />
        </mxCell>
        <mxCell id="M90B2qkFFjyxvgEx6j84-56" value="Aggregate()" style="whiteSpace=wrap;html=1;aspect=fixed;fillColor=#008a00;fontColor=#ffffff;strokeColor=#005700;" vertex="1" parent="1">
          <mxGeometry x="1215" y="1860.62" width="68.75" height="68.75" as="geometry" />
        </mxCell>
        <mxCell id="M90B2qkFFjyxvgEx6j84-57" value="Key:MatchID&lt;br&gt;Value: {WinnerID, LooserID,&lt;br&gt;&amp;nbsp;PlayerLevel1, PlayerLevel2}" style="text;html=1;align=center;verticalAlign=middle;resizable=0;points=[];autosize=1;strokeColor=none;fillColor=none;" vertex="1" parent="1">
          <mxGeometry x="1022.5" y="1935" width="180" height="60" as="geometry" />
        </mxCell>
        <mxCell id="M90B2qkFFjyxvgEx6j84-58" value="Key: RoomId&lt;br&gt;Value: Update" style="text;html=1;align=center;verticalAlign=middle;resizable=0;points=[];autosize=1;strokeColor=none;fillColor=none;" vertex="1" parent="1">
          <mxGeometry x="760" y="1775" width="100" height="40" as="geometry" />
        </mxCell>
        <mxCell id="M90B2qkFFjyxvgEx6j84-59" style="edgeStyle=orthogonalEdgeStyle;rounded=0;orthogonalLoop=1;jettySize=auto;html=1;exitX=1;exitY=0.5;exitDx=0;exitDy=0;entryX=0;entryY=0.5;entryDx=0;entryDy=0;" edge="1" parent="1" source="M90B2qkFFjyxvgEx6j84-61" target="M90B2qkFFjyxvgEx6j84-63">
          <mxGeometry relative="1" as="geometry" />
        </mxCell>
        <mxCell id="M90B2qkFFjyxvgEx6j84-60" style="edgeStyle=orthogonalEdgeStyle;rounded=0;orthogonalLoop=1;jettySize=auto;html=1;exitX=1;exitY=0.5;exitDx=0;exitDy=0;entryX=0;entryY=0.5;entryDx=0;entryDy=0;" edge="1" parent="1" source="M90B2qkFFjyxvgEx6j84-61" target="M90B2qkFFjyxvgEx6j84-66">
          <mxGeometry relative="1" as="geometry" />
        </mxCell>
        <mxCell id="M90B2qkFFjyxvgEx6j84-61" value="MatchService" style="whiteSpace=wrap;html=1;aspect=fixed;fillColor=#FF8000;" vertex="1" parent="1">
          <mxGeometry x="455" y="1255" width="80" height="80" as="geometry" />
        </mxCell>
        <mxCell id="M90B2qkFFjyxvgEx6j84-63" value="KUpdateMatch" style="rounded=0;whiteSpace=wrap;html=1;fillColor=#0050ef;fontColor=#ffffff;strokeColor=#001DBC;" vertex="1" parent="1">
          <mxGeometry x="615" y="1425" width="140" height="30" as="geometry" />
        </mxCell>
        <mxCell id="M90B2qkFFjyxvgEx6j84-66" value="NewRoom" style="rounded=0;whiteSpace=wrap;html=1;fillColor=#0050ef;fontColor=#ffffff;strokeColor=#001DBC;" vertex="1" parent="1">
          <mxGeometry x="615" y="1475" width="140" height="40" as="geometry" />
        </mxCell>
        <mxCell id="M90B2qkFFjyxvgEx6j84-67" value="User" style="whiteSpace=wrap;html=1;aspect=fixed;fillColor=#FF8000;" vertex="1" parent="1">
          <mxGeometry x="1425" y="1245" width="80" height="80" as="geometry" />
        </mxCell>
        <mxCell id="M90B2qkFFjyxvgEx6j84-70" style="edgeStyle=orthogonalEdgeStyle;rounded=0;orthogonalLoop=1;jettySize=auto;html=1;exitX=0.5;exitY=0;exitDx=0;exitDy=0;entryX=0;entryY=0.5;entryDx=0;entryDy=0;" edge="1" parent="1" source="M90B2qkFFjyxvgEx6j84-71" target="M90B2qkFFjyxvgEx6j84-67">
          <mxGeometry relative="1" as="geometry" />
        </mxCell>
        <mxCell id="M90B2qkFFjyxvgEx6j84-71" value="MatchUpdate" style="rounded=0;whiteSpace=wrap;html=1;fillColor=#0050ef;fontColor=#ffffff;strokeColor=#001DBC;" vertex="1" parent="1">
          <mxGeometry x="1325" y="1455" width="140" height="30" as="geometry" />
        </mxCell>
        <mxCell id="M90B2qkFFjyxvgEx6j84-72" style="edgeStyle=orthogonalEdgeStyle;rounded=0;orthogonalLoop=1;jettySize=auto;html=1;exitX=1;exitY=0.5;exitDx=0;exitDy=0;entryX=0.5;entryY=1;entryDx=0;entryDy=0;" edge="1" parent="1" source="M90B2qkFFjyxvgEx6j84-47" target="M90B2qkFFjyxvgEx6j84-71">
          <mxGeometry relative="1" as="geometry" />
        </mxCell>
        <mxCell id="M90B2qkFFjyxvgEx6j84-73" value="ScoreUpdate" style="rounded=0;whiteSpace=wrap;html=1;fillColor=#0050ef;fontColor=#ffffff;strokeColor=#001DBC;" vertex="1" parent="1">
          <mxGeometry x="1505" y="1505" width="140" height="30" as="geometry" />
        </mxCell>
        <mxCell id="M90B2qkFFjyxvgEx6j84-74" style="edgeStyle=orthogonalEdgeStyle;rounded=0;orthogonalLoop=1;jettySize=auto;html=1;exitX=1;exitY=0.5;exitDx=0;exitDy=0;entryX=0.5;entryY=1;entryDx=0;entryDy=0;" edge="1" parent="1" source="M90B2qkFFjyxvgEx6j84-56" target="M90B2qkFFjyxvgEx6j84-73">
          <mxGeometry relative="1" as="geometry" />
        </mxCell>
      </root>
    </mxGraphModel>
  </diagram>
</mxfile>
